/* XPM */
static char *_e86e7eaab474578ce242724e398a376Fn21kJQHqRSixCMw[] = {
/* columns rows colors chars-per-pixel */
"64 64 161 2 ",
"   c black",
".  c #010000",
"X  c #000100",
"o  c #010100",
"O  c #010101",
"+  c #000201",
"@  c #000002",
"#  c #010002",
"$  c gray12",
"%  c #201E1F",
"&  c #1F211E",
"*  c #1E201F",
"=  c #20201E",
"-  c #21201E",
";  c #21211F",
":  c #00003E",
">  c #00013E",
",  c #00003F",
"<  c #211F20",
"1  c #201E21",
"2  c #211F22",
"3  c #1F2120",
"4  c #202020",
"5  c gray13",
"6  c #222021",
"7  c #202022",
"8  c #202123",
"9  c #2C2C2C",
"0  c gray22",
"q  c #393939",
"w  c #000040",
"e  c #010040",
"r  c #000041",
"t  c #00004B",
"y  c #01014B",
"u  c #01004C",
"i  c #00014C",
"p  c #01004E",
"a  c #000055",
"s  c #000056",
"d  c #000057",
"f  c #020056",
"g  c #000058",
"h  c #000158",
"j  c #010159",
"k  c #020058",
"l  c #030059",
"z  c #00005A",
"x  c #01015B",
"c  c #000062",
"v  c #010062",
"b  c #000063",
"n  c #010163",
"m  c #000064",
"M  c #010064",
"N  c #000065",
"B  c #000165",
"V  c #010165",
"C  c #00006E",
"Z  c #00006F",
"A  c #01006F",
"S  c #02006E",
"D  c #000070",
"F  c #000170",
"G  c #000071",
"H  c #010171",
"J  c #020070",
"K  c #000072",
"L  c #020072",
"P  c #000079",
"I  c #00007A",
"U  c #01007A",
"Y  c #00017A",
"T  c #00007B",
"R  c #00007C",
"E  c #01007C",
"W  c #00017C",
"Q  c #00007D",
"!  c #01017D",
"~  c #02007D",
"^  c #00007E",
"/  c #01007E",
"(  c #535353",
")  c #545452",
"_  c #555553",
"`  c #555354",
"'  c gray33",
"]  c #555555",
"[  c #545456",
"{  c #000087",
"}  c #010187",
"|  c #010088",
" . c #000188",
".. c #020088",
"X. c #020189",
"o. c #000289",
"O. c #01008A",
"+. c #00018A",
"@. c #02008A",
"#. c #02018B",
"$. c #000095",
"%. c #000096",
"&. c #000097",
"*. c #010097",
"=. c #000098",
"-. c #000099",
";. c #010099",
":. c #020098",
">. c #01009A",
",. c #03009A",
"<. c #0000A2",
"1. c #0000A3",
"2. c #0100A3",
"3. c #0001A3",
"4. c #0100A4",
"5. c #0001A4",
"6. c #0000A5",
"7. c #0200A4",
"8. c #0201A4",
"9. c #0300A5",
"0. c #0201A5",
"q. c #0002A5",
"w. c #0000A6",
"e. c #0100A6",
"r. c #0200A6",
"t. c #0201A7",
"y. c #0000AE",
"u. c #0001AE",
"i. c #0000AF",
"p. c #0100AF",
"a. c #0200AE",
"s. c #0000B0",
"d. c #0000B1",
"f. c #0001B1",
"g. c #0101B1",
"h. c #0200B0",
"j. c #0000B2",
"k. c #0200B2",
"l. c #0000B9",
"z. c #0000BA",
"x. c #0000BB",
"c. c #0000BC",
"v. c #0100BC",
"b. c #0000BD",
"n. c #0100BD",
"m. c #0100BE",
"M. c #0000C7",
"N. c #0100C8",
"B. c #0001C8",
"V. c #0200C8",
"C. c #0201C9",
"Z. c #0000CA",
"A. c #0100CA",
"S. c #0000D3",
"D. c #0000D4",
"F. c #0101D5",
"G. c #0200D4",
"H. c #0000D6",
"J. c #0100E0",
"K. c #0001E0",
"L. c #403FFD",
/* pixels */
"0 D ^ T ^ ^ ^ ^ T T ^ ^ ^ ^ ^ ^ T ^ T ^ ^ D 0 0 | | | | | | | | | | | | | | | | | | | | | | | | | | } | 0 0 D T T ^ ^ T ^ T D 9 ",
"& e.e.e.e.e.e.e.1.1.e.1.e.e.1.e.e.e.e.e.e.e.= 4 c.c.c.c.c.c.c.c.c.c.c.c.c.c.x.c.c.c.c.c.c.c.c.c.c.c.c.c.4 4 s.s.s.s.p.s.p.p.s.4 ",
"  e.1.e.| 1.^ e.1.*.^ *.:.^ :.:.T 1.^ Z D g   4 c.e.c.p.^ e.c.:.D D :.| e.e.| D | e.c.e.} :.1.c.c.e.:.D   2 s.c.e.:.e.s.s.:.^   ",
"  e.:.T } *.:.*.T ^ e.:.e.m :.:.T Z ^ ^ D m   4 c.c.e.:.:.:.D :.g D g d ^ e.e.m D D m D Z g D | | D m D   4 s.s.e.e.^ :.e.e.g   ",
"  e.| e.Z M.N.:.^ ^ ^ :.| | ^ m g T D g d m   4                                                           4 s.e.s.c.c.s.e.^ ^   ",
"  e.| ^ 1.M.N.m ^ ^ ^ e.:.:.:.| D Z ^ d g w   4 e.e.e.e.e.e.e.e.e.e.e.e.e.1.e.e.e.e.e.4 = $ 4 4 4 = 4 4 4 4 s.c.e.s.e.^ ^ m g   ",
"  e.:.:.s.s.e.e.e.:.e.e.e.:.:.D D m g m D m   4 e.c.c.c.s.e.:.:.c.:.:.s.:.:.s.c.c.e.e.  4 e.e.e.1.:.*.m 4 4 s.*.:.1.^ | | m m   ",
"  e.e.:.e.s.s.e.:.^ m 1.e.:.| | ^ m m g w w   4 e.p.x.J.N.s.e.c.e.:.:.:.s.s.e.e.e.:.e.  2 e.:.:.| :.^ m   4 s.:.:.e.D | | | m   ",
"  e.:.T :.e.e.| :.^ :.D D | | | D ^ T m g ,   4 e.s.N.c.N.*.s.e.e.c.*.*.e.^ e.^ :.e.^   4 e.:.:.:.^ ^ m   2 s.c.e.:.1.e.| | w   ",
"  e.| | | 1.^ ^ ^ e.e.D d m m D m ^ ^ ^ g w   4 e.s.s.s.:.:.:.s.e.e.1.1.:.| m ^ ^ ^ m   = e.e.:.^ ^ g g   3 c.^ ^ :.e.e.:.g w   ",
"  :.^ | e.| | D :.e.e.D D m g m m m ^ ^ g w   4 e.c.s.p.s.:.:.s.x.x.e.e.b m | ^ ^ m g   4 e.e.:.^ 1.^ g   2 c.^ c.e.^ :.:.g w   ",
"  :.| *.^ ^ e.| m T d ^ m g m ^ w g , w m w   4 e.c.e.e.s.s.s.p.c.s.s.e.m b D e.m m w   4 e.^ | :.^ g g   4 c.c.^ ^ b m ^ ^ w   ",
"  :.^ :.^ b | | ^ m ^ m ^ m w D D , w w m w   4 e.s.e.e.:.c.:.:.e.s.s.e.:.:.^ ^ g g m   4 e.} | | D D m   4 x.^ D m ^ m ^ ^ w   ",
"  :.:.^ ^ ^ Z m g g m ^ m D b w , D w m g w   4 e.s.J.N.| | :.:.| ^ ^ ^ | :.| ^ m m w   4 e.e.| | D D m   $ c.^ ^ D g g g g w   ",
"  *.^ :.m m D m ^ m w w w w w w w w w w w w   4 e.c.M.N.| } | e.e.^ | | ^ | Z ^ m g w   4 e.^ :.e.g g g   4                     ",
"                                              3 e.c.e.e.:.| | e.e.e.} | :.m m ^ m g w   4 e.e.e.:.e.g m   4 4 4 = 4 4 = 4 4 4 4 ",
"e.c.s.e.s.e.e.e.1.1.p.1.e.e.e.  s.s.s.e.e.*.:.  e.p.:.e.} *.e.e.1.e.^ :.:.^ ^ g g , w   4 :.e.:.1.:.D m   4 e.e.e.e.  c.c.c.c.c.",
"c.s.e.*.e.c.p.e.} 1.1.T e.:.^   s.s.:.c.c.^ c.  e.e.e.e.x.1.:.e.e.e.| m D ^ w w m g ,   4 :.:.^ D ^ D g   4 1.s.| ^   x.c.e.s.x.",
"c.s.:.:.} 1.e.| ^ :.:.^ ^ :.:.  s.c.c.s.:.^ ^   e.s.:.e.c.e.} T | | m ^ ^ D w w m w w   4 :.:.g g g m w   2 e.s.s.^   c.e.s.s.s.",
"s.e.:.p.p.:.:.^ ^ ^ :.^ ^ ^ ^   s.c.s.s.:.:.m   e.s.e.e.e.| e.^ ^ m D D g g g m m d w   4 :.^ g m g g w   4 e.} ^ g   c.c.c.s.s.",
"e.| *.p.c.s.^ ^ :.:.^ :.g ^ ^   s.c.:.^ *.:.m   e.e.e.:.:.:.:.^ m g m m g m m g w , w   4 :.^ m g g w w   4 e.g m g   c.c.s.s.s.",
"e.1.| :.s.D.^ :.^ ^ m m D ^ ^   s.*.x.^ ^ ^ b                                           4                           4 c.x.1.1.:.",
"s.| ^ | :.e.:.^ ^ :.m D ^ d g   s.:.*.m ^ ^ d   $ 2 3 4 4 4 4 4 4 4 4 4 4 4 4 = 4 4 4 2 4 4 4 4 = s.s.s.s.s.s.s.s.4 4 c.e.e.:.:.",
"s.e.| :.^ :.^ :.:.^ D ^ m ^ d   s.c.:.} m g m   4 s.p.s.s.s.s.s.s.s.s.s.s.s.p.s.s.s.s.s.s.:.e.2 4 s.N.s.N.1.e.e.:.  4 c.s.:.:.:.",
"s.s.:.} p.:.:.:.:.^ ^ D d g g   e.c.^ | | m g   2 s.c.s.e.c.c.c.s.x.e.s.e.c.s.^ e.c.c.c.^ e.g   4 s.N.s.N.N.e.:.|   2 c.c.:.:.:.",
"s.e.| T | s.s.b ^ :.} | D g m   e.^ m D D g m   4 s.c.e.s.N.J.J.c.D.J.1.c.e.e.c.c.e.e.e.1.^ g   4 s.N.N.N.N.e.| ^   4 c.s.c.e.e.",
"e.:.^ | e.s.s.e.:.^ | | D g m   :.^ g d g g m   4 p.p.e.x.D.D.J.c.J.S.D.s.^ e.^ ^ e.T ^ e.g g   = s.s.e.N.e.| e.b   4 x.c.c.e.e.",
"s.*.s.:.:.e.s.e.m ^ D D Z g g                   4 p.c.c.s.s.N.N.e.e.D.D.e.e.T ^ T D e.^ ^ d g   % s.N.e.e.e.e.| m   4 x.c.c.s.s.",
"e.| | 1.e.:.e.e.m D g m g w w   4 = 4 4 4 4 4 4 4 s.s.c.s.s.s.e.1.1.x.e.e.e.^ | | T ^ g g g m   4 s.N.N.e.e.| ^ D   4 c.e.e.x.p.",
"e.:.| 1.e.1.:.^ D m g m m g g   3 s.s.s.s.e.e.4 4 s.e.e.c.s.| | 1.c.p.T e.e.^ | | | D Z D g g   4 s.N.N.:.:.e.e.g   4 c.e.e.s.p.",
":.| :.| e.e.^ b m g d g m w m   4 s.s.| e.:.|   4 s.c.s.c.s.} | 1.1.e.^ e.e.e.D | | g D D D w   4 s.s.N.:.:.:.e.g   4 x.c.:.:.T ",
":.| | ^ | } ^ m m D ^ ^ m w w   = s.e.e.:.| :.  4 s.c.c.1.s.s.s.*.e.T ^ ^ e.e.D g b g m D D w   4 s.s.e.| s.1.e.m   4 c.| | :.:.",
":.| e.:.D ^ ^ Z b Z T ^ b g w   4 s.e.:.| D m   4 s.c.e.^ e.s.s.1.1.T Z ^ m D D Z d w w g w w   4 s.s.N.| s.s.:.m   4 c.| | ^ ^ ",
":.e.:.| | ^ b b g y u D m g w   4 s.s.| p.| g   4 s.1.e.c.^ e.e.*.T Z T ^ m m D D m w w m m w   4 s.e.N.1.| :.:.g   4 c.c.^ ^ T ",
"^ :.:.| ^ ^ ^ ^ g u u g g m w   4 s.s.s.D D m   $ s.^ c.^ e.e.^ ^ D m T ^ ^ m m g g m b b u w   4 s.N.e.e.:.d D m   2 c.e.e.:.:.",
"^ | | ^ D T ^ ^ g g m g d g g   4 s.s.s.e.g g   4 s.e.c.^ e.e.D m m g ^ ^ ^ m g g g d u u u ,   4 s.N.e.:.^ :.D g   4 c.e.e.:.| ",
"^ | m D ^ m ^ ^ g m g w g m g   4 s.*.:.g | m   4 s.e.^ e.e.^ g g g g b m m m g w w w w w w w   = s.N.e.^ :.:.^ m   4 c.:.e.e.^ ",
"^ :.^ m ^ m D g m w w g w , w   4 s.:.:.s.g m   4                                               4 e.s.e.^ m ^ ^ m   4 x.:.| | ^ ",
"T | :.| D ^ Z g g g w m w g w   4 s.s.| s.| g   4 4 4 4 3 4 2 4 4 4 4 4 4 4 4 4 3 4 4 4 4 4 4 $ & e.s.s.e.^ g m w   4 c.c.} | ^ ",
"T :.| ^ m D ^ D w , w w w w w   4 s.s.| | g m   4 e.e.e.e.e.e.e.e.e.e.e.e.e.e.1.e.1.e.e.1.e.e.4 4 1.s.e.c.e.T m w   4 c.:.:.^ | ",
"                                = s.s.^ ^ g d   4 e.c.c.c.x.c.c.s.e.e.e.e.e.1.1.:.| ^ c.:.e.T   4 e.N.e.e.x.} g w   4           ",
"4 4 4 4 4 d g D D | | | ^ D m 4 4 1.p.^ ^ ^ d   4 s.c.N.N.c.e.e.s.s.N.c.:.:.e.1.:.^ | ^ | :.^   4 e.1.e.e.| | g w   4 | :.| |   ",
"2 :.e.s.c.c.c.c.x.c.c.c.c.c.x.2 4 e.e.| ^ ^ m   4 s.c.N.N.N.s.s.s.s.c.c.^ ^ ^ ^ e.e.e.:.:.^ m   3 e.N.e.^ Z g d w   4 :.:.^ ^   ",
"$ e.c.c.c.c.c.s.e.s.x.e.e.e.c.  4 e.e.:.g m m   4 p.c.c.c.c.D.D.s.s.p.T T ^ ^ ^ ^ :.^ ^ D :.m   4 e.s.| D m g D w   4 :.^ D D   ",
"4 1.c.s.s.D.D.s.c.c.c.:.e.c.c.  4 e.:.| g g g   4 s.c.c.s.c.D.D.D.^ e.:.^ ^ D D D | ^ ^ ^ ^ m   4 e.e.D m D g d w   4 :.D ^ g   ",
"4 c.c.c.s.D.S.c.:.:.e.c.c.:.s.  4               4 e.s.x.s.c.c.D.D.c.e.e.:.^ D D m m g ^ ^ ^ m   4 | ^ ^ g g g m w   4 | ^ D g   ",
"4 c.e.s.e.s.s.s.:.:.:.c.e.| |   4 4 4 4 4 4 4 4 4 e.1.s.N.:.:.c.e.c.e.e.e.e.T ^ m m ^ m g u u   4                   4 | D g m   ",
"4 c.c.s.:.| s.p.e.:.:.e.c.c.e.  4 c.c.s.e.e.:.4 = e.e.N.N.:.*.:.s.e.e.1.^ T :.| D m b g g w ,   $ 4 4 = 4 4 4 4 4 4 4 4 4 4 4   ",
"4 c.c.:.e.c.s.| e.s.p.s.^ e.1.  = c.^ c.| :.|   4 1.c.c.c.s.:.:.c.c.c.e.^ ^ ^ ^ m m m g g w w   4 s.s.s.s.c.c.c.c.c.x.c.c.c.c.  ",
"4 c.c.c.c.e.} c.| p.^ ^ e.| 1.  4 c.e.s.s.:.^   4 e.s.e.e.s.s.s.x.c.c.c.e.T | D g m m m D g u   = s.s.e.e.s.s.p.s.e.} c.e.e.^   ",
"4 c.e.c.:.e.e.c.s.:.^ u ^ 1.e.  2 c.c.^ e.^ D   4 e.c.e.e.e.:.e.x.c.c.c.1.e.e.d g g g m Z D m   4 s.e.s.D.D.s.s.s.:.e.1.e.*.^   ",
"4 c.s.:.:.c.J.c.e.| e.^ ^ e.e.  2 c.s.e.e.^ e.  4 e.c.c.e.e.c.| | x.c.c.1.e.e.D g g m g u u u   4 s.c.c.D.N.N.s.s.| | e.:.^ m   ",
"4 c.e.c.e.J.L.J.:.:.e.:.| ^ |   4 c.s.e.^ e.D   4 e.e.x.:.:.^ ^ ^ | e.e.e.^ ^ ^ m m g g g w w   4 s.:.c.:.N.N.s.s.e.e.^ ^ ^ g   ",
"4 c.s.c.s.c.J.c.e.^ e.e.u u m   4 x.e.s.s.^ m   4 e.e.c.e.| } ^ ^ ^ | ^ | g g :.:.D D g u , w   4 s.c.p.:.:.:.e.e.T ^ ^ T g m   ",
"4 c.e.c.s.p.s.| | | ^ D u u m   4 c.c.s.*.} m   4 e.:.c.c.:.c.^ ^ | ^ ^ | ^ d :.:.| D D m g m   4 s.s.e.:.:.:.e.^ D m ^ g g m   ",
"4 e.c.s.s.1.^ T :.e.:.:.^ m m   4 x.p.e.| | ^   4 e.x.:.e.c.e.| ^ D D | | g d ^ :.:.^ D g g ,   4 s.s.:.e.:.:.e.^ D m D ^ g d   ",
"4 c.e.c.s.| | s.^ e.e.:.D ^ g   4 c.e.c.^ ^ ^   4 e.c.e.e.e.*.| 1.1.Z Z g D g g ^ ^ ^ m g d w   $ s.s.c.p.} p.s.*.^ m :.:.g w   ",
"4 c.e.c.e.:.| ^ m | e.e.:.D m   4 c.x.e.m m m   2 e.e.e.:.*.T | 1.1.e.D m D D g u u u m w w w   4 c.c.s.| 1.p.s.s.:.^ :.:.^ w   ",
"4 s.e.| | | e.m u m | :.:.D Z   4 c.s.e.^ D g   = e.s.e.:.:.c.e.^ e.e.g g D D m g w w g , w w   4 c.s.e.| 1.e.s.s.:.^ ^ ^ ^ w   ",
"4 p.e.Z m | m e.^ ^ :.g b g g   4 s.e.m m m g   4 e.s.c.^ c.c.e.d m m m d g u y y w w u g w w   4 c.p.1.c.e.1.^ | D D ^ ^ g w   ",
"4 e.e.| | m | g m g m D m D m   4 s.e.| D b m   2 1.1.s.c.e.^ :.g m m m g d w w D D m w u w g   4 c.c.c.:.e.^ ^ D ^ ^ D b , m   ",
"4 e.:.^ ^ T ^ ^ Z D Z D ^ ^ ^ 4 4 e.| ^ ^ ^ ^ 4 = 1.e.:.e.:.^ ^ ^ ^ ^ ^ D b g g ^ ^ ^ ^ g d D 4 4 c.e.e.^ :.e.^ ^ ^ ^ ^ D Z ^   ",
"0 | } | T ^ ^ ^ ^ ^ ^ ^ ^ ^ ^ 0 0 | | ^ ^ ^ ^ 0 0 e.N.} | | | | ^ ^ T ^ ^ ^ ^ ^ ^ ^ ^ ^ ^ ^ ^ 0 0 c.| | T ^ ^ ^ ^ ^ ^ ^ ^ T ^ 4 ",
"' ' ' ' ' ' ' ' ' ) ) ' ' ' ( ' ' ' ( ' ` ' ' ' ) ' ' ) ' ' ' ' ' ' ' ) ' ' ' ' ' ' ` ' ' ' ' ' ' ' ' ' ' ' ' ' ' ' ) ' ' ( ' 0 "
};
