/* XPM */
static char *c26d6540a71a4f01c56e7c88699dd42dVVqHPJH15SDe6VJM[] = {
/* columns rows colors chars-per-pixel */
"64 64 192 2 ",
"   c gray11",
".  c gray12",
"X  c #20201E",
"o  c #372B13",
"O  c #372D14",
"+  c #382C12",
"@  c #3A2C12",
"#  c #3A2B14",
"$  c #3A2B16",
"%  c #382C14",
"&  c #392D15",
"*  c #3B2C15",
"=  c #382C16",
"-  c #3F2F16",
";  c #3E3016",
":  c #3F3117",
">  c #211F20",
",  c #202020",
"<  c gray13",
"1  c #202022",
"2  c #272727",
"3  c #282826",
"4  c #292728",
"5  c #282828",
"6  c gray16",
"7  c gray17",
"8  c #2C2C2A",
"9  c #2B2B2D",
"0  c #2D2B2C",
"q  c #2B2D2C",
"w  c #2C2C2C",
"e  c #2D2D2D",
"r  c #2C2C2E",
"t  c #2F2F2F",
"y  c gray19",
"u  c #313131",
"i  c gray20",
"p  c #323433",
"a  c #343432",
"s  c #333534",
"d  c #343434",
"f  c #373735",
"g  c #343436",
"h  c #373737",
"j  c #363837",
"k  c #383836",
"l  c #393937",
"z  c #393738",
"x  c #373938",
"c  c #37383A",
"v  c gray22",
"b  c #393939",
"n  c #38383A",
"m  c #3F3F3F",
"M  c #402E16",
"N  c #412F17",
"B  c #403016",
"V  c #403017",
"C  c #473715",
"Z  c #463716",
"A  c #473716",
"S  c #4A3716",
"D  c #4A3717",
"F  c #463815",
"G  c #473916",
"H  c #473817",
"J  c #483816",
"K  c #483817",
"L  c #403019",
"P  c #41311A",
"I  c #473618",
"U  c #483719",
"Y  c #483918",
"T  c #493918",
"R  c #543D1B",
"E  c #553D1B",
"W  c #543B1C",
"Q  c #563B1D",
"!  c #553C1D",
"~  c #543D1D",
"^  c #563E1C",
"/  c #553C1E",
"(  c #573C1E",
")  c #563D1E",
"_  c #563D1F",
"`  c #553E1E",
"'  c #5D3E1F",
"]  c #5C3F1F",
"[  c #5A3F21",
"{  c #5C3F21",
"}  c #5E3F20",
"|  c #3E403F",
" . c #5A401F",
".. c #5D401E",
"X. c #5E401E",
"o. c #5B4120",
"O. c #5B4022",
"+. c #5D4020",
"@. c #5F4021",
"#. c #5E4121",
"$. c #5D4022",
"%. c #40403E",
"&. c #6B4723",
"*. c #6C4923",
"=. c #6C4824",
"-. c #6D4925",
";. c #6E4824",
":. c #734B27",
">. c #744D26",
",. c #774D27",
"<. c #744C28",
"1. c #744C29",
"2. c #744E29",
"3. c #3F4140",
"4. c #3F4042",
"5. c gray25",
"6. c #414141",
"7. c gray28",
"8. c #484647",
"9. c #484846",
"0. c #494846",
"q. c #494748",
"w. c #474948",
"e. c #484848",
"r. c #494949",
"t. c #4A4849",
"y. c #48484A",
"u. c #4B4B4B",
"i. c #4C4A4B",
"p. c #4C4C4A",
"a. c #4B4D4C",
"s. c #4C4C4C",
"d. c gray30",
"f. c #4E4C4D",
"g. c #4C4C4E",
"h. c #535353",
"j. c #545452",
"k. c #555553",
"l. c #555354",
"z. c #535554",
"x. c #535456",
"c. c gray33",
"v. c #555555",
"b. c #565455",
"n. c #545456",
"m. c #545557",
"M. c #555557",
"N. c #5B5B5B",
"B. c gray36",
"V. c #5D5D5D",
"C. c #5D5D5F",
"Z. c #636361",
"A. c gray39",
"S. c #636562",
"D. c #646462",
"F. c #656364",
"G. c #636564",
"H. c #646464",
"J. c #656565",
"K. c #646466",
"L. c #6F6F6F",
"P. c #70706E",
"I. c #71716F",
"U. c #716F70",
"Y. c #716F72",
"T. c #6F7170",
"R. c gray44",
"E. c #717171",
"W. c #707072",
"Q. c #7B7B7B",
"!. c #7C7C7A",
"~. c #7D7C7A",
"^. c #7D7D7B",
"/. c #7D7B7C",
"(. c #7D7B7E",
"). c #7B7D7C",
"_. c #7C7C7C",
"`. c gray49",
"'. c #7E7C7D",
"]. c #7C7C7E",
"[. c #814F2C",
"{. c #804F2E",
"}. c #80502C",
"|. c #8B8B8B",
" X c #8C8C8A",
".X c #8B8D8C",
"XX c gray55",
"oX c #8D8D8D",
"OX c #8C8C8E",
"+X c #999798",
"@X c #989898",
"#X c gray66",
/* pixels */
"`.`.`.K ! +.+.<.+.+.+.+.+.+.+.+.+.+.+.+.+...! V D +.+.+.o.! ! T c.A.`.`.R.R.R.R.w 0 w 7 w w w u.H.R.c.H.c.c.u.s.s.u.c.B.B.H.R.`.",
"`.R.R.z.K ! } <.+.+.+.+.+.+.+.E +.+.+.+.+.+.W V K +.+.+.! K K c.H.`.`.R.`.R.`.`.u.q w 9 7 w u.H.R.c.H.c.s.u.c.c.B.H.H.H.H.H.H.R.",
"R.P.R.H.c.K ! =.+.+.+.+.+.+.+.] W ! +.+.+...! V K +.! ! K q.c.H.F.u.+.+.+.+.u.H.H.u.w w w u.H.R.c.H.c.s.h.B.H.H.H.H.H.H.H.H.H.H.",
"c.R.`.R.H.c.K =.+.+.+.+.+.+.+.+.! ! ] +.+.+.K V A ! K A c.H.`.u.+.+.K T V K : K H.H.u.u.u.H.R.c.H.H.H.H.H.H.B.c.c.s.s.s.s.s.s.s.",
"s.c.Y.P.`.H.K =.+.+.+.+.+.+.+.+.+.+.+.+.+.! K V K A c.G.`.`.u.+.T K T K V K V D u.`.H.H.H.R.c.H.N.B.B.B.N.B.B.B.B.B.B.B.B.B.B.B.",
"p.s.c.R.R.R.K ! +.+.+.+.+.W +.+.+.+.] +.! V V K c.H.`.`.H.o.+.A K K K K V K V V # H.OX#XR.c.H.c.s.s.s.s.s.s.s.u.s.s.s.s.s.s.s.s.",
"s.s.s.c.R.).j.A W +.+.+.+.} +.o.+.+.+.! V N 9.c.H.`.`.u.+.D D K U H K K P - K & O H.#X].c.H.c.a.s.s.s.s.u.s.s.s.u.s.s.s.s.s.s.s.",
"s.s.a.s.c.L.`.c.A ! +.+.+.+.+.+.+.! ! - K c.H.H.`.H.+.+.A K D K K K K K V N U o & H.@XQ.A.c.s.s.s.s.s.s.s.s.s.s.s.s.s.s.s.s.s.s.",
"s.s.s.s.u.h.Q.H.h.A W ] +.+.+.! W V V c.D.H.`.`.u.+.! K K K K K K V K K V & H & & H.+XD.c.s.u.s.s.u.s.s.s.s.s.s.s.s.s.7.s.s.s.s.",
"s.s.s.s.u.u.`.`.A.h.A W ! W ! V P h.H.`.`.`.H.+.+.! K K K K K K K V K K N & V & + H.OXF.c.a.s.s.u.s.s.u.s.s.s.s.s.s.s.s.s.s.s.s.",
"s.s.s.u.u.u.`.R.`.H.h.V V - - u.c.H.`.`.H.u.] ! ! K K K K U K K K K K K U & V & 5.H.OXH.B.s.7.s.s.s.u.s.s.u.s.s.s.s.s.s.s.s.u.u.",
"s.s.s.u.u.u.R.R.`.!.H.c.h.z.c.c.H.!.).H.] +.! K K K W K K K K K K & K K K & & & s.R.Q.H.B.s.s.p.u.s.s.s.s.s.s.u.u.s.s.s.s.s.s.7.",
"s.s.s.s.u.h R.R.G.c.j.c.H.R.@X+XOXL.H.+.! ! K ! ! A H D K K K K K & K K K & & & c.R.OXH.c.s.s.s.s.s.s.s.s.s.s.u.7.s.u.u.u.u.u.u.",
"s.s.s.u.v H.`.A.c.l.c.c.w.H.@XOXOXH.+.K ! ! K ! ! K K K K H K K K & D K K & + & H.R.`.H.c.s.s.p.s.s.s.s.s.s.s.s.u.s.u.u.u.u.u.u.",
"s.s.u.h H.`.R.c.c.c.h.c.q.u.R.OX`.+.! K +.K K K K K A U K A K K K & K K K & & 5.H.`.`.H.c.s.s.s.s.s.s.s.s.u.s.s.s.s.u.u.u.7.u.u.",
"s.u.v H.`.`.H.c.c.c.c.c.u.u.u.H.c.+.A +.W K K K K K K K K D K K V & K K K & & s.R.`.!.H.c.s.s.s.s.u.s.s.s.s.s.s.s.s.u.u.7.7.u.7.",
"u.v H.).`.R.H.h.c.c.c.c.5.s.c.u.H...A ..H K ! K K K K K K K K D V & D K V & & c.`.`.`.h.s.s.s.s.s.s.s.s.u.s.s.s.a.s.s.s.p.s.w.v ",
"h H.H.u.u.H.R.c.c.c.c.s.5.c.c.H.G.+.K ! K K K A K A K K H K K K & & H K : & # G.*...H.c.a.s.s.s.s.s.s.s.u.u.s.s.s.s.s.s.s.u.v 5.",
"A.H.u.! ! u.H.H.c.c.c.5.5.c.c.c.R.+.! ! K K K K K H K K K K K K + V K V & V B.=.+.+.z.H.5.s.s.s.s.s.u.s.s.s.s.s.s.s.s.u.%.v 5.5.",
"D.u.! +.K ! u.`.u.h.5.5.5.c.c.c.H.H.! ! K K A K K A K K K K H : & V & & V H.*...+.+.K H.H.5.u.s.s.s.s.s.s.s.s.s.u.m v h h v 5.H.",
"8.! +.H K K V H.R.u.5.c.5.c.c.c.u.`.u.! K K U K K K K K K T V & & & & s.H.`.K T K K A R.P.H.5.5.5.u.u.u.7.u.5.5.k h k 5.v l.H.H.",
"! +.K K K K V u.`.H.u.c.5.c.h.c.q.L.G.- D K T K K K K K K K o & & & s.F.`.Q.`.H.H.F.H.OXOXF.D.5.v h h h a h h a z 5.5.v l.A.`.u.",
"+.T K K K A V V H.R.u.c.5.c.c.c.v H.`.u.K K K K K K K K T & & & 5.B.H.c.c.c.h.c.c.c.`.OX@X@XR.H.c.v 5.5.5.5.5.5.5.5.v c.H.`.u.! ",
"K K K ! K K V K H.`.H.u.5.c.c.s.v H.`.H.V K K H U T K K O & 4.c.H.H.l.u.5.v 5.5.5.m c.`.@X@XOX`.H.c.h 5.5.m 5.5.v v c.H.`.u.! +.",
"K K K D D K V K u.`.`.H.5.c.s.u.v H.`.`.u.O P K K K N & & c.H.`.H.c.u.m m h v 5.5.5.5.c.Q.OXOXR.Q.A.c.v v v v v v c.H.).H.W +.K ",
"K K K K K K V U : H.`.R.v u.u.u.v R.T.`.A.+ & & & & # & | H.`.H.c.u.5.m m h 5.v 5.5.v 5.R.`.R.c.h.Q.H.c.v v c v c.H.`.H.u...K K ",
"K ! ! K K K # K V c.R.`.D.v v v R.`.`.`.`.u.& & & & 5.s.B.`.c.h.u.5.u.u.5.v 5.h 5.5.v u.A.R.H.7.9.c.).H.c.c.c.c.A.`.H.7.E H K K ",
"K E ! K H A & K V u.`.OXT.H.H.P.`.z.=.=.c.H.u.7.s.B.B.`.`.c.c.u.5.5.u.u.5.v 5.5.k %.h c.H.L.c.u.w.u.c./.!.!. XOX`.R.u.! K K K K ",
"K K K ! K K & K V u.`.R.OXR.R.H.=.&.+...+.+.H.H.H.R.`.R.j.c.u.5.5.5.5.5.5.h 5.5.z v a c.H.H.u.u.u.u.u.H./.OXOX`.R.H.W H K K H K ",
"K T T K D V & K V u.`.R.R.R.Y.=.+.+.+.+.+...W `.`.R.R.c.j.u.m 5.5.u.m 5.5.h 5.5.v v u.H.L.h.c.u.u.u.u.c.H.R.R.G.B.c.E K K ! ! W ",
"K K K K K V : K V c.R.OXR.R.R.S.+.+.o.+.} +.K `.R.`.c.c.c.5.5.5.5.5.m 5.m a 5.5.h h c.R.`.Q.H.H.H.H.H.H.H.`.R.B.l.B.W K K ! ! ! ",
"K T K T K & V : V c.`.`.H.c.H.`.`.+.+.+.! K K `.`.c.c.u.c.5.5.%.5.5.5.5.5.h 5.5.z a H.c.:.:.<.<.<.:.,.<.,.K +.<.B.H.! K K ! ! ! ",
"K K K K V o K V u.H.`.H.c.B.c.H./.`.W ! K K H.`.c.c.u.u.c.u.5.5.5.5.5.5.5.a 5.5.h c.R.=.=.=.+.+.+.+.+.+.+.K +.} +.`.! H U K A K ",
"K K K K V & V u.H.H.H.c.B.c.c.c.H.`.`.H.c.c.`.H.h.u.5.u.c.u.5.5.5.5.m 5.v w 5.v a c.H.=.+.=.+...+.o.+.+.+.K +.+.! H.! U K ! K K ",
"K K K K O V u.H.H.`.c.B.c.c.c.c.c.H.`.OX`.OX`.c.u.5.5.u.c.u.5.5.5.5.5.5.z w m h a H.c.}.+.=.+.+.E +.+.+.o.K +.+.! H.! K K K K K ",
"K A D V & u.H.H.R.H.c.B.c.c.c.c.c.c.H.`.OX|.OXc.5.5.5.u.c.s.5.5.5.5.5.5.g t m t H.R.u.}.+.=.+.+.+.+.+.+.+.K +.+.! H.V K K K K D ",
"K D K & u.H.H.`.`.c.B.c.c.c.c.c.l.c.c.H.OX@X@Xc.5.m 5.u.c.s.5.5.5.5.5.5.a a c 7.R.R.=.}.+.*.+.+.} +.+.+.] K +.+.! G.u.N K K A K ",
"K K V u.H.H.R.`.H.c.B.c.c.c.c.c.c.c.c.c.H.@X@XH.m m 5.u.c.s.u.5.5.5.5.5.a a g c.`.H.=.}.+.=.} +.+.+.+.+.+.! +.+.W H.H.u.V K H K ",
"K P u.H.H.R.`.H.c.B.c.c.B.c.c.c.c.c.u.c.c.H.OXT.h m 5.u.c.s.u.m 5.m 5.5.a a w H.`.z.=.}.] +.+.+.+.+.+.] ! ! ] +.! H.`.H.u.- K K ",
"V w.F.H.`.`.R.H.c.c.c.c.c.h.c.c.c.c.c.u.c.c.OXOXh.k v u.c.u.u.m 5.5.5.5.a a u.R.R.=.+.}.+.*.+.+.+.+.+.+.! +.+.} K H.`.!.H.u.V V ",
"u.H.H.OXOX`.H.c.c.c.c.c.B.c.c.c.c.c.c.5.c.c.H.R.R.a v v c.m s.5.m m m m a t c.`.H.=.+.[.=.+.+.+.+.+.+.+.! +.+.+.K H.!.`.`.H.u.u.",
"H.H.@X@XOXH.c.c.c.c.c.c.B.c.c.c.c.c.c.5.u.c.c.H.H.u.w h w 4.s.%.m m m m a a c.`.c.=.+.}.<.+.+.+.+.} +.! +.+.+.+.K H.w w v c.F.H.",
"H.`.@X@XR.c.c.c.c.B.B.c.c.c.c.B.c.c.c.u.5.c.c.c.H.j.u.a w c u.u.m 5.5.c a u.H.R.=...[ ,.}.+.+.+.o.+.+.! +.+.+.] K H.w w q w k c.",
"w u.OXOXH.c.c.c.B.B.B.c.c.c.c.c.c.c.c.w.m c.c.c.z.7.c.H.c.h s u.5.5.5.v a c.R.`.=.+.+.=.[.+.o.o.+.+.! } +... .+.K H.0 0 7 w . w ",
"w , u.`.c.c.c.c.B.B.B.c.c.c.c.c.h.7.h.7.m u.c.c.c.u.H.H.c.a h p v 5.5.v a H.`.`.! +.+.+.<.+.+.+.+.+.+.+.+.W +.} K H.w w 0 w , w ",
"w , u.L.c.c.c.c.B.B.c.h.c.c.c.c.h.h.c.7.5.u.c.c.7.v H.OXOXc.a s h 5.5.h u.R.R.R.G.! +.+.=.=.+.+.+.+.+.+.+.+.+.+.K H.w w 0 w , 8 ",
", 7.H.H.c.c.c.c.c.c.c.B.c.h.c.c.h.7.c.u.5.u.c.u.v u.`.OXOX`.c.a h v v a c.`.R.R.`.H.! +.+.&.+.+.] ] +.! ! +.+.! K H.w w w , 7 w ",
"u.H.H.H.u.c.c.B.B.h.c.c.c.c.c.h.c.u.l.u.h u.7.v u.c.`.u.K u.`.c.w a a a R.`.H.v v H.H.! ! +.=.+.+.+.+.! ! +.! K u.A.w w w , w 8 ",
"H.R.L.R.H.u.c.B.B.c.c.c.c.c.c.c.c.u.c.7.a m c 7.c.H.u.! K V u.`.H.c.c.H.`.H.v w w h H.R.H.! ..+.+.+.] +.+.! A u.H.H., X > . , , ",
"`.`.R.R.`.H.7.u.c.c.c.c.c.c.c.l.c.u.c.5.g h u.c.H.u.W K K V D V u.`.`.`.H.v w w w 7 v H.R.H.E ! +.+.+.+.! K u.H.R.!.`.u.u.u.u.u.",
"`.R.`.OXOX XH.u.u.c.c.c.c.c.c.c.u.7.c.5.a u.z.H.u.! K K K V U V H 7.].].u.v w w w 8 w v F.R.R.z.! ! ! K K u.G.c.j.h.c.c.c.H.`.`.",
"/.z.=.=.c. XOXA.7.h c.j.c.c.c.c.u.u.u.h u.c.H.u.! K A K K V K V A - ].A.v 7 w 7 w 7 4 9 v H.`.R.c.! K u.u.H.H.c.c.c.c.c.h.u.H.`.",
"*.=.....=.=.c.`.H.u.v u.c.c.c.u.9.u.v u.c.H.u.! K A K K K V K V K V `.v w w 2 w w 3 7 w w v H.`.R.c.u.w.H.`.c.j.c.s.c.c.c.u.H.`.",
"+.+.+.+.+.+.=.=.c.H.u.h 7.c.u.u.v j u.H.u.u.W K I K K V K V K V V u.H.v w w w , 7 w q w w w h H.`.R.H.H..XG.s.s.l.c.c.c.s.u.H.`.",
"+.! +.] +.+.+.+.=.A A.7.v u.u.v u.c.H.w.W } ! K K U K K K V - V u.H.v w w w w w , , w 7 w 0 w v D.`.R.OXOXc.s.s.c.c.c.j.s.u.H.=.",
"..+.+.+.+.} +.! +.A } ..u.v v 7.l.H.u.! } E T A H K K V K V V V c.v v w w w w w 7 , , 7 w 7 w 7 v H.).OXH.c.c.c.c.c.c.s.u.7.A.*.",
"+.+.! W +.+.+.! +.H +.+.! u.u.l.H.8.! W +.! K K K K K V K V V 7.H.h w 7 7 7 w w w 2 . . 2 7 7 w w v H.`.c.c.c.c.c.c.c.u.u.c.=.+.",
"+.+.! ! +.+.+.! +.K ! A K c.c.H.9.! K ! +.A K K U K K V K P u.G.u.v w w 2 7 7 w 7 7 . . , 7 7 7 w 7 v H.`.c.c.c.c.c.u.s.u.H.=.+.",
"+.+.+.+.+.+.! K ! V K K z.G.H.u.! K K E +.K ! K K K K V - N c.H.v v 7 w 7 7 w 7 w w . , . . 7 w w w w v H.A.c.c.c.s.u.u.c.=.+.+.",
"+.+.+.] +.o.! U T V K h.`.`.`.w.D K K ! +.K K K T K K V V u.H.v w v w w w w w w w w 7 . . 7 , 7 w w w w v H.s.s.s.u.i.u.c.=.+.+.",
"+.+.+.+.+.+.! U N V c.`.`.`.`.c.K K K W +.D K K A K K V w.H.u.c w v w w w w w w w w 7 , , , 7 , 7 w w w 8 , H.u.u.c.c.u.=.} +.+.",
"+.+.+.+.+.+.A : V c.`.c.5.c.`.H.u.K K ! +.U K K K T K V c.H.v w w v w w w w 7 2 w w w 7 , . 7 7 , 7 w w w , c.A.c.c.p.H.=.+.+.+.",
"o.+.+...+.! K N c.`.c.5.5.5.c.`.c.K K ! +.K K D K K V u.H.v w 8 w v w w 7 w 7 7 w w w 7 , . , 7 , , 7 w w , c.`.u.u.A.=.+.} +.+.",
"+.+.+.+.! V V z.`.`.m 5.5.5.5.z.H.K K ! U K K K K V u.c.D.w w w w v w w 7 w w w w w w 7 , . . 7 7 , , 7 w , c.`.Q.A.A.&.+.+.+.] "
};
