/* XPM */
static char *a21505aa0399428ad0e21af097221e30TCM1AeShkDeeg5LD[] = {
/* columns rows colors chars-per-pixel */
"64 64 117 2 ",
"   c gray12",
".  c #3F0000",
"X  c #211F20",
"o  c #3F003F",
"O  c #1F2120",
"+  c #202020",
"@  c #2C2C2C",
"#  c #363635",
"$  c #393937",
"%  c #393739",
"&  c #373938",
"*  c #383838",
"=  c #400000",
"-  c #4C0000",
";  c #570000",
":  c #580000",
">  c #640000",
",  c #6F0000",
"<  c #700000",
"1  c #7C0000",
"2  c #553C1D",
"3  c #40003F",
"4  c #595400",
"5  c #6F6D00",
"6  c #706C00",
"7  c #744C27",
"8  c #744C28",
"9  c #430043",
"0  c #480147",
"q  c #470048",
"w  c #49004A",
"e  c #51004F",
"r  c #4F0051",
"t  c #520052",
"y  c #580057",
"u  c #590158",
"i  c #5F0064",
"p  c #600064",
"a  c #6C006F",
"s  c #6C0070",
"d  c #434343",
"f  c #474946",
"g  c #484846",
"h  c #474749",
"j  c #494748",
"k  c #474948",
"l  c #484848",
"z  c #545454",
"x  c #646464",
"c  c #6F6F6F",
"v  c #706E6F",
"b  c #6F716E",
"n  c #70706E",
"m  c #716F70",
"M  c #6F7170",
"N  c #707070",
"B  c #7C7C7C",
"V  c #870000",
"C  c #880000",
"Z  c #960000",
"A  c #980000",
"S  c #A40000",
"D  c #B00000",
"F  c #BC0000",
"G  c #C80000",
"H  c #D40000",
"J  c #E00000",
"K  c #EC0000",
"L  c #FC0000",
"P  c #FE1F20",
"I  c #FC2020",
"U  c #B45400",
"Y  c #CC5F00",
"T  c #CC6000",
"R  c #FD7801",
"E  c #A86940",
"W  c #848400",
"Q  c #9C9C00",
"!  c #FC891F",
"~  c #CCC401",
"^  c #E5D800",
"/  c #FEF503",
"(  c #E88D58",
")  c #840185",
"_  c #850188",
"`  c #9C009C",
"'  c #8C8C8C",
"]  c #979797",
"[  c #979996",
"{  c #989896",
"}  c #979799",
"|  c #999798",
" . c #979998",
".. c #989898",
"X. c #A7A7A7",
"o. c #A8A6A7",
"O. c #A7A9A6",
"+. c #A8A8A6",
"@. c #A9A7A8",
"#. c #A7A9A9",
"$. c #A8A8A8",
"%. c #B4B4B4",
"&. c #BFC1BE",
"*. c #C0C0BE",
"=. c #C0C0BE",
"-. c #C1BFC0",
";. c #C1BFC0",
":. c #BFC1C0",
">. c #C0C0C0",
",. c #C1C1C1",
"<. c #C0C0C2",
"1. c #C0C0C0",
"2. c #D0D0CE",
"3. c #CFD1D0",
"4. c #D0D0D0",
"5. c gray82",
"6. c #D0D0D0",
/* pixels */
"* * * * * * % * * * % * * * * * * * % * * & * * * * * * * # * $ * % * * * * % * * * * * & * * % % # * * * * * $ & * * * * * * * ",
"z * z l l l l l z l l l l l l z l * l l l l l l l z z z z z z l l l l l g l j l z z z z z z z l l l l * * * l l z z l l l l l # ",
"# K K H H H H H H H H H S h l z K K H H H H H H H H H H H H H H H H H H S h * z K K K K J J J J J J H H H H H G G G G F F F S l ",
"l / G D D H C S H C G S > @ l z K F C F C F V F 1 F A F A F 1 F 1 F G S < @ l * H S G D G D D G < G 1 G D G C D S 1 G A G S / @ ",
"^ ~ W %.%.%.%.%.%.%.%.%.%.%.%.%.%.%.%.%.%.%.%.%.%.%.%.%.%.%.%.%.%.%.%.%.%.%.%.%.%.%.%.%.%.%.%.%.%.%.%.%.%.%.%.%.%.%.%.%.%.~ ~ 5 ",
"E Q 4 N N B B B B B B B B B B B B B B B B B B B B B B B B B B B B B B B B B B B B B B B B B B B B B B B B B B B B B N m M 6 ( 4 ",
"l 2 S B B B B .......................... ...| .............. ...............[ { ............ .............] ......B N B B ; E @ ",
"g F 1 ..B I S = = z < < < < < < < < < < < < < < < < < < < < < < , < < < < < < < < < < < < < , < < < S D L J B = = = B <.N : = @ ",
"l F S $.B S <...N = B X.<.5.&.<.%.%.%.%.%.%.%.%.%.%.%.%.%.%.%.%.%.%.%.%.%.%.%.%.%.%.%.%.%.%.%.%.<.<.<.-.-.B = B N ..P B N : = @ ",
"l 1 > %.... ..<...B ' ..$.$.' B $.5.<.%.%.%.%.%.%.%.%.%.%.%.%.%.%.%.%.%.%.%.%.%.%.%.%.%.%.%.%.' s x -.%.$.$.@.N $.5.S N B = = @ ",
"l l @ 5.$.= ] $.<...B B  ...z y N $.5.5.<.*.%.%.%.%.%.%.%.%.%.%.%.%.%.%.%.%.%.%.%.%.%.%.<.<.' x p r ..$.$...{ $.2.B = B { + + @ ",
"z * * 5.%.z N ..%.<.] B B ' r y y y B $.5.<.<.<.<.<.%.%.r n z r r r r U T R %.%.%.%.<.<.' x p y r r ......] $.5.<.x z ' $.X @ @ ",
"K H H %.5.= B ..$.%.<...N x l q r r y y B $.%.%.%.%.%.%.r r r r r B r U U Y ! %.%.%.' x p y r r r l ......$.<.<.$.B = ..$.: ; H ",
"D C V %.5.< ..'  .$.%.x y N x l q q r r y y y B ' %.%.%.N r r r r r r U ' %.%.' x p p u y r r r l N N r x $.<.$.' B = $.%.: : D ",
"C S C %.5.D $.| ' ..x a i l N x l q q q q ) y u y c ' %.%.r r r r r r ' %.' x p p y ) r r r q g N z a p p x #...B ' < $.%.: : Z ",
"< S S %.%.A %. .' ' q p s p y l x l # q 0 s q y y y u %.%.w r r r r r %.%.y p p y r s q q * l x l r p p s s ..' B ' < $.%.: ; 1 ",
"S C C %.%.C <.o...' q q p s p p y l z * 3 o q q q y z %.%.t r r r r r %.%.z q q q q q q * l l q r y p s s s ' B ' ' < #.%.: : 1 ",
"< S > %.%.< 5.%.$...l q q p s s p y q o 3 3 9 q q ' %.%.N r t r r r r N %.%.' q q q 3 3 3 q q r y p s s s z ' B ' ..< %.%.: : C ",
"< D > %.%.< 5.<.%...x l 0 y p p s p y s 3 3 3 q ' r N %.r r r r r r r r %.N q ' q 3 3 q y q q y p s s s z B B ' ' $.< %.%.: : < ",
"= - - %.%.< 5.5.x r N z z l y p p s y ) r 3 3 q t q r %.%.r t r r r r %.%.q q q q q q y s r y i p s z B x l l x ..$.< %.%.= : = ",
"@ @ @ %.%.< %.5.y r q l z z z l p p s y ) r r w q r q B x r r r r r r x B q q q q q q s y y p p z ' B x f 3 3 q ..$.< %.%.+ + @ ",
"z z l %.%.< %.5.p y r q q 9 * j l z x u y y y q 0 q r r r r r r r r r r q q q q q q r r y z x ' B z r q 3 9 3 q $.$.< %.%.+ @ @ ",
"z K K <.<.1 <.%.p p r r q 3 3 3 q q y ` y y y q 0 r t r t r r r r r r r q q q q q r y y ` y y y r r q 3 3 3 3 y $.$.< %.%.: : @ ",
"z K C 5.5.A 5.<.y p y r q q 3 3 3 q q ) y y y r r r r r r r r w r r r r r q q r r y y u ` y y y r q q 3 3 3 q y ..$.1 %.%.: = @ ",
"* K D <.<.C <...N y p r r q 9 3 q 3 q s y y r r r r r r z z x N N x z z r r r y y y y y ) y y r q q 3 3 3 3 q N ..$.1 %.%.: = @ ",
"l F > %.%.1 %.....c l y r q q q r q w y s r r r r r w r x s ` s s ` s x r r y u y y y ) y y r q q q 3 3 3 g N ....%.C %.%.: = @ ",
"l F D %.%.< %.r y l x v N x x z l d # q r u ) y r r r r B ` s s s s ` B r y t y y _ y y y z z l d * d k z x l p s <.A <.<.: = @ ",
"z F < $.#.< $.r r y y y y r q r q t q r q r y ) s r r r z a s s s s s z r r y s ) y u y y r q q q q 3 q q r y p s 5.A 5.5.: = @ ",
"j G S $.X.> $.r r r y y y r t q r q w q r t r r r r r r B ` s s s s ` B r y r y r y y y r q q q q q q q r y y p p <.Z <.<.: = @ ",
"l S A  .{ - ..r r y r y r y r t r r r t r r w r r r r r z s ` g s ` s z r r y r y y y r r q q q q q q q r w p s p *.V <.<.: = @ ",
"l l * X.$.: $.r r r y r y r r r r r r z r t t w z r r r B z s l a s z B r y r z y r r r z q q q q q q q r t p p r %.1 %.%.O   @ ",
"z z z $.$.> $.x r w r r r r r r j N r t r r r z r r w r z B B z z B B z r r r y z r t q t q N l q q q r r y p y x %.< %.%.O @ @ ",
"F F F %.%.< %.| x r r r r l N N r r r r r r N r r r r r r r z B B z r r r r y r r N r r q q q r N N l r r y y x  .%.< %.%.: : F ",
"S D S %.%.< %.%.%.......{ N t r r t r r r N r r r r r r r r r r r r r w r r r r r r N q r q 0 q q r n ........%.$.$.> $.$.: : S ",
"S 1 C %.%.< %.%.] ..N w r r r t r r r r m r r r r r r r r r r r r r r r t r r t r r r N q r q r q r y y y N .... ...: ....: : < ",
"C 1 S %.%.< %.%.t r r w r r r r r r r N r r r r N r N r r r r r r r r r r N r n r r r r N q r q r y y y y y r t ' ' - ' ' : : < ",
"S C 1 %.%.< %.%.r r r r r r r r r r N r r r r x | N r r r r w r r t r r r r n | x r r r r N t r r r y u y y r r ....: ..} ; : C ",
"S C 1 %.%.1 %.%.N r r r r r r r r N r r r t r ..r r r r r r r r r r r r r r r r ..t r r w r N r r y y y u y r N ....> ....: : < ",
"< < C %.%.1 %.%...r r w w r r r N t r r e r ..r r r r r r r r r r r r r r r r r r ..r r r r r N r r y t y r w ..$.$.> $.$.: : < ",
"= = - %.%.C %.%.%.N t r r r t m r r r r r r r r t r r r r t r r r r r r w r r r t r r r r r r w N r r r y r N %.%.%.> %.%.: : = ",
"@ @ @ <.<.C -.<.<.%.N r r r N r r r r r r ..r t r r r r r r r r r r r r r r r r t r ..r r r r r r c r r r N %.%.%.%.< %.%.+ O @ ",
"z l z 5.5.S 5.5.5.%.%..... ...r r r r r ..%.` r r r r r r M r w w r b r r r r r r ` %...r r r r r .. .....%.%.%.%.%.< %.%.+ @ @ ",
"* K H <.<.A <.<.<.%.%.%.%.%.....r r r ..%.%.%.N r r r r r t r r r r t r r r r r N %.%.%...r r r ....%.%.%.%.%.%.<.*.C <.<.: : @ ",
"z H S %.%.A %.%.%.%.%.%.%.B U U B %.%.%.%.B U r r r r r r r r r r r w r r r r r r U B %.%.%.%.B U U B %.%.<.<.<.<.<.C <.<.: = @ ",
"l H S %.%.C %.%.%.%.%.%.%.U U U U U U U U U U 8 8 t r N %.r r r r r r %.N r t 8 8 U U U U U U U U U U <.<.<.:.5.3.5.A 5.5.: = @ ",
"l H C %.%.C %.%.%.%.%.%.%.%.B x 7 U U U U 8 8 B %.%.%.%.r r r r r r r r %.%.%.%.B 8 8 U U U U 7 x B %.%.%.<.<.<.<.<.Z <.<.; = @ ",
"* H S %.%.1 %.%.%.%.%.%.%.' U U U U U U U U U U %.%.%.t r r r r r r r r t %.%.%.U U U U U U U U U U ' %.%.%.%.%.<.<.C <.<.: = @ ",
"z H S $.$.< $.$.$.+.%.%.%.U 8 8 ' U U 8 %.' 8 U %.B r r r r t r r t r r r r B %.U 8 ' %.8 U U ' 8 8 U %.%.%.%.%.%.%.< %.%.: = @ ",
"* G S +.$.< O.@.$.$.$.+.%.7 B ' %.U 8 %.%.%.%.B z t r r r r t r r t r r r r t z B %.%.%.%.8 U %.' B 7 %.%.%.%.%.%.%.< %.%.: = @ ",
"z S > %.%.< %.%.%.%.%.%.%.%.%.%.%.U 8 %.%.B z r t r r r w r r r r r r w r r r t r z B %.%.8 U %.%.%.%.%.%.%.%.%.%.%.< %.%.= = @ ",
"* l @ %.%.< ..%.%.%.%.%.%.%.%.%.%.' U %.t r r r r r r r r B r r r r B r r r r r r r r t %.U ' %.%.%.%.%.%.%.%.%.%...< %.%.+ + @ ",
"z * z %.%.< B %.%.%.%.%.%.%.%.%.%.%.%.%.B z r r r r r x %.r r r r r r %.x r r r r r z B %.%.%.%.%.%.%.%.%.%.%.%.%.B < %.%.+ @ @ ",
"H H H %.%.B < B ..%.%.%.%.%.%.%.%.%.%.%.%.%.B z r r x %.B r r r r r r B %.x r r z B %.%.%.%.%.%.%.%.%.%.%.%.%...B , B %.%.: : F ",
"1 S : B %.%.B < < < B  .%.%.%.%.%.%.%.%.%.%.%.%.%.%.%.%.r r r r r r r r %.%.%.%.%.%.%.%.%.%.%.%.%.%.%.%. .' < < < B ..%.B : : < ",
"S 1 1 ; B %.%.%...B < , < < B ..%.%.%.%.%.%.%.%.%.%.%.%.x r r r r r r x %.%.%.%.%.%.%.%.%.%.%.%...B < < < < ' ..%.%.%.B : : : - ",
"S 1 : ; : z B %.%.%.%.%...B , , < B ] %.%.%.%.%.%.%.%.%.%.x r r r r x %.%.%.%.%.%.%.%.%.%.] B < , < B ..%.%.%.%.%.B z ; : : < C ",
"1 A : : : : : z B %.%.%.%.%.%...B , < < B ..%.%.%.%.%.%.%.%.x r r x %.%.%.%.%.%.%.%...B < < < B ] %.%.%.%.%.B z : : : : : > < S ",
"> S 1 S > : > : : : : z B %.%.%.%.%...B < < < B { %.%.%.%.%.%.x x %.%.%.%.%.%.{ B < < < B ..%.%.%.%.%.B z : : : : : : < : S < S ",
"> S 1 1 > A A > : : : : ; : z B %.%.%.%.%...B < < < < B ..%.%.%.%.%.%...B , < < < B | %.%.%.%.%.B z ; ; : : : : : < S < : > S - ",
"1 A ; S > > C > 1 1 S : : : : : : = z B %.%.%.%.%...B < < < B ....B < < < B ..%.%.%.%.%.B z = @ @ @ : : : : S : S < S < S > S < ",
"- - - - - - - - - - - - - - - - = = + + @ z B %.%.%.%.%.] B < , < < B ..%.%.%.%.B z - - - = = + @ @ : = = - - - - - - - - - - - ",
"@ @ @ @ @ @ @ @ @ @ @ @ @ @ @ @ @ @ @ + + + + + @ z B %.%.%.%.%.%.%.%.%.%.B z + + + + + @ + + + @ @ @ @ @ @ @ @ @ O + + + + @ @ ",
"* z % z & * * l l l l l z * * # * @ @ @ @ @ @ @ + + + X + z B %.%.B z @ X + + + X @ @ @ @ @ @ @ @ * * g l z l l l l d * d g l l ",
"z z z z z z z z z z z z z z z z z z z k * * * @ @ + + + + + + + + + + + + + + + + + @ # * * l l z z z z z z z z z z z z z z z z "
};
