/* XPM */
static char *d08ea2d9b5c841daff61da2cf02034d4AT4Oi4FbKZN2owJJ[] = {
/* columns rows colors chars-per-pixel */
"64 64 64 1 ",
"  c #1E1E1E",
". c gray12",
"X c #202020",
"o c #3A3A3A",
"O c gray23",
"+ c #3C3C3C",
"@ c #3E3E3E",
"# c #3F3F3F",
"$ c #464646",
"% c gray28",
"& c #484848",
"* c gray29",
"= c #4B4B4B",
"- c #4C4C4C",
"; c #4E4E4E",
": c gray31",
"> c #505050",
", c gray32",
"< c #535353",
"1 c gray33",
"2 c #565656",
"3 c gray34",
"4 c #585858",
"5 c gray37",
"6 c #5F5F5F",
"7 c gray40",
"8 c #676767",
"9 c #686868",
"0 c #6A6A6A",
"q c gray42",
"w c #6C6C6C",
"e c #727272",
"r c gray45",
"t c #747474",
"y c gray48",
"u c #7B7B7B",
"i c #7C7C7C",
"p c gray51",
"a c #838383",
"s c #848484",
"d c #8E8E8E",
"f c gray56",
"g c #909090",
"h c #9A9A9A",
"j c #9B9B9B",
"k c gray61",
"l c #AAAAAA",
"z c gray67",
"x c #ACACAC",
"c c #B6B6B6",
"v c #B7B7B7",
"b c gray72",
"n c #C6C6C6",
"m c gray78",
"M c #C8C8C8",
"N c #D2D2D2",
"B c LightGray",
"V c gray83",
"C c gray87",
"Z c #DFDFDF",
"A c gray88",
"S c #EEEEEE",
"D c #EFEFEF",
"F c gray94",
/* pixels */
".O.O.O.O.O.O.O.O.O.O.O.O.OXO.O.O.O.O.O.O.O.O.O.O.O.O.O.O.O.O.O.O",
"2<2:2<2:2:=BZZZBZBZZZBZBZZZ.OazvBmBBmBvmza2.%%%%%%%%%%<:2:2:2:2:",
"<2<<2<<<2<%ZBmBvBBBmBBvBBmg.Oamvfzaffffaz:O.Owffafffu08%%==%%%=%",
"ffafffaf.<=ZmmvBvmmvmmvvBf6.OzBzfzfzazfza2OXOfBZZZBZbvzfafffafff",
"BBBBvzfa.2%ZBzzjzfzzzzjzzu<.Ofvffaxzzzafr:#.OaZZvmvBZZZVZBmBBBmB",
"zzzzjzur.<%Svkzzzxjzgzazz0<.O=zfxzafjfz02<O.OfBvzfxfzxjffzfzazfj",
"vjjjzfu0.=%SVzazfzfjjjffzf:.O%ufazfzzazrOO#.OaZvfzajaffzafjfzjfj",
"vzabaj62XO%Smfjfzzjfuffzf62.#%%fzzjgffx0OOO.OfZzzajuzkufzazzfuzj",
"jzzfjt%=..=mvzjzazfjajgfz0<X.=<%uOOOOOOOO..OOrZAfzaajrjfzffuzzrf",
"ffafr<%%.O%xSzjzffffffaza2u..O=OOOOOOO.O...%%%mMffffjjkafzfzzazf",
"r0rr<=OO..=gBfzffuffxazfz02O.O%OX......O.O.=<%mxfzazfafr08668686",
"<2%%%.X..O#rZzajuuuxjfauf08O.O%%==rufzjzzjrO:=vf0r8682<<<%=%=%%=",
".....O.O.O<%Zmffgjjafzufzf:O.O#rzzBZSBBBj0<.<%f086<=%%OO#OO.O.O.",
".O.O..O.OO:%zBfzaufxfajfar:O..OzvABvazfzarO.OOOOOOOOOOO.........",
"OOOOOOOOO#==fmzaxjaufufzf:2O.O#zZvzfffaff:O.O..O..O..O.##OOOOOO#",
"<=OOOOOO.O<%rmazjfzjzszaz:r%..=zFzfazfzaz<O.O%2<22.%=%%=%%%%%%%#",
"jjfjfjfjj..4%Mvjfajjrffff02<..:zSafzzazff:O.O0zZB4%<ukjfjjjfjkjj",
"BmBBmBvzr#.2%fvfzfuffazf0f0=..=zmzzfazfza2O.OzVmz.%umBZZZBZZZBZB",
"zjfzfzz0rO.<%rjzazzazrf0<r<=..=zmzf0rr0<2<O.OBmza.=jBBvvzbvvzvvv",
"zfjfxaf0rO.%<%jfrr0r<<t:r<%...Ojfrf0O#OOOOO.6ZzffX%jZzzjzfzfjajj",
"zffzazz02O.%<%8<2<2%%%O....X...frOOO......X.6Zzza.=jBzfjajfkrafa",
"zfzfzafr:O.%<%.O.O..X.........OO:O.....O..O.fAzzf.%fmazjzfxfjajj",
"fzruffz02O.O:2=OX.......:==:==%fffzzfffu2.#8vZzau.:amzajfjajuuff",
"faaufza8%O.OaZZABmzzf6O=8uzzvmmZAZBZZZmj8.OuZmjzr.%avzjfxazfuuff",
"ffzzaff6=O.OBmzfjjxfjO:=uBSZZmvbmvmvmvm02.OfZzjf0.=0mazgfjfazfzf",
"jzafzar<OO.OZjfjzzfjx.<=jZmfzazjazjzjfa8%.OfSzaz2.=%fr62<<880ufa",
"86868<%OOO.OBzzzazfz6.=%jSzjzfuzzfafzaz2%.OaSzzf2.<.OO%%%%=%%<2<",
"<=%OOO.....OZazfzzfu6.=%jSazfjzafufzfgf:=.OfSazf<.2O.........OO%",
".......O.==%Zzjazfzu6.O%jSffzafufufafzf:=.OaSzza2.2OOOOOOO.O....",
"%880gjfagf%.Zzrjfzaa8O.%fSzfafufufzufaz<%.OfSfzx:.2%#%:<:2<<2OOO",
"8fvZBABBmzr.Zzzaufza8O.=fZvjfzfzrugufza2#.OfBffx:.=zZBvf62%%=%%<",
"8zBmmvzzjz#.Sfjzufzj0%.=uBmzafrfuuxfzaa:O.OfZzff<.=ZafvZZBZZZfO<",
"8Zvzzazfzar.Fjzfzzaz0=.O:mZzzjfzazuufz02O.#gBfzf:.=ZfazxafzgaaO:",
"8Bvjazfzazr.Sjajzfza8<..2xSzzjgfufuuzar%O.=fBzza2.%Zzzafzzazf6O%",
"8Zzgzfzzuz:.Zzzzfffx8:.O:fFvzfzafjazfz6%.O#fBjfz:.=mzfzzafzfz6O%",
"8Zzzffjjza2.Zvujuzzj62..=0Bvzfujafjfff6#..=fBfz:2.=mzjzfzafzj2O%",
"8Bvfzzfzaz<.mZakzfff62..=<vZzszfzfzaf8<OXO%uzu:OOO#zzfzjfzfaz2OO",
"8Zvzjfzfzf:.vZuzaggz02..O:fvzfu86<%=OOOO.O#2OOOO#%.r:%<2<2<<2<OO",
"8Zxfxzazuz<.jBjuzzaf02..O<%fg64=O........O%:%%:<2<2............O",
"8Bvfajzfxs2.uZzjzafz8:...:%O.O....O.OX.O.O%<2%%=%%%=%%OOOO#OOOOO",
"8Avzxajzfz<.2Sgjffza8<..O%%%OOOOO=%=#:=%=%%2<uuuuuuuuuuuuuuuurO:",
"8Zzfgzazf02.%Szfaufz02...#8uuuuuuuuuuuuufffkzvzmvmvmvvmvmvmvmuO:",
"8mvzzfzfz:..:Sjfzffa84O..OumvmvmvmmvmvmvmvBZZSSSSSSSSSSFBZBVf8.=",
"8Bvfzfzza2.O#Sfzujaz8:O...ummSSSSFZZSSZSSSSSZZBBvvvmvzvmvvMvu2.:",
"8vvzfzaff:.O%Zzzazff62O.X.ummvmvmvmzvmzvmvvzzjjffzfzaffzazfz02OO",
"=mafzar0r<.O%Bafzazf02O...8bZvffafffzazxffjzzzfujazzjazfzzjf0<.O",
"%vzzjf2<<..#%vzafzfar<O...%mZvfffzfjgjzafjzzajfjffuajjfzszfz02OO",
"%uuu2<2<<.OO#jjzaff08<O....vZBzzafffufaxfjazjuafzafzfurgujffr<.O",
"%O...22<2.O#=u068868<<O...OzBBfaxfzafzfiujjaxfzffzafuffazfra02.O",
"<2<%O....OO#OOOOOOOOOOO....fBvzgfzazufajujfjuxafufffazfuffau02.O",
"%=%%%=%O..O=OO.......X....Oaj0rr0rr0zfzzafuaffiffzazffzafffj02.O",
"%uzzzzff8==<OO..O..O..O.O.O<%OO.O.#.2r0ufuuuuuuuuuuuuuuuiuuu8:.O",
"%zmBZBZZvzzf062=OOOOOOOOOO#2%%OOOOOO.=<<2<2<2<2<<<2<2<<2<2<<<.OO",
"%zBzzfvBZZZvzzzzzxzjffaui088:2%%%#%OO.O.O.O.O.O.O.............O#",
"%zZzzzvzfzvZZZBZBZBZZZZmBmvzzzzza=<%OOOOOOOOO..O.O.O.O.O.O.OOO%=",
"%zZzazuuzjfuxazfzfzzazfzzzmBZBBvaO%:=%%OOO.OOOOOOOOOOOOOOOOO#%:<",
"%zmzzzfzfffjxafzurfzufafzazfzzzu8.O:=zBZju==%<<<%%#%%=#==#%%:2<<",
"%zmzszuujzazzjauzufujazfzfzazxj8<.O%%ZzzZZZBv<<=vZZBAZZBVmzju=%<",
"%za86868688686886868688686868682<OXO%Bvzvzvvv62uZjzzfzazjzfzBj.<",
"%f8OOOOOOOOOOOOOOOOOOOOOOOOOOO#OOO..=vzvvj6ja8%vzfzazzzazfzaz<.2",
"%O....................X.............:O%O:86886=Zjjjzzfjzjjzff:.2",
"<=OOO.O..O..O..O.O..O..O..O..O..O.O.#:2OO.....O<2<<<<<2:<2<2:2.<",
"<2:<%%%==%==OOOOOOOOOOOOOOOOOOOOOOOOO:2:<OOOOOO:<..............2",
"OOOOOOOOOOOOOO#OOOOOOOOOOOOOOOOOOOOO#OOO#OOOOOOOOOOOOOOOOOOOOOOO"
};
