/* XPM */
static char *fe0f34bdc59e4972aa83e2e9b97be4ec4nPM7UZYGVWrRwFL[] = {
/* columns rows colors chars-per-pixel */
"128 128 5 1 ",
"  c None",
". c #E2A940",
"X c #E3A940",
"o c #E2AA40",
"O c #E3AA40",
/* pixels */
"                                                        ................                                                        ",
"                                                  ............................                                                  ",
"                                              .....................O..............                                              ",
"                                           ........................O.................                                           ",
"                                        ......OO.......O................................                                        ",
"                                      ..OO....O.......O...................................                                      ",
"                                    ...................O..O.........OO......OO..............                                    ",
"                                  ........................OOO.......OO......OO................                                  ",
"                                ....OO......................................O....O.O...O........                                ",
"                              ......OO.............O....O.....OOOO..........O.........OO.....O....                              ",
"                             ...........OO....O...OO....O.....O.OO.....O....OO..............OO.....                             ",
"                           ..............O...OO.......OOO..............OOO...........................                           ",
"                          ..OOO............OOO.....O...O................................OO............                          ",
"                         .........................OO........................OO.........O.O..O..........                         ",
"                       ..............O..................OO.....O......OO.........OO....O....O............                       ",
"                      ..............O....................O....OOOO....OO.........OO....O....O.............                      ",
"                     ...........O....O...................O....OOOO........................O....O...........                     ",
"                    ............O....OO.................OO.....OOO....OO..................O....O...O......OO                    ",
"                   .....O....OO.O.................OO....................O...OO................OO...OOO.......                   ",
"                  ......OO....O............OOO.....O...O................O...OO....OOOO..............O.........                  ",
"                 ..O.....................O...OO.......OOO..............OOO.......O....O.............O...OO...O.                 ",
"                ........................OO....O...OO....O.....O........O....OO...O....O.........................                ",
"               ...........OO....OO..O..............O....O.....OOOO....OO..................OO...O..OO.............               ",
"              ............O....OO...OO....................................................OO...O..O...............              ",
"              .............O...O....O...............OO....OO........OO.....O..............OO......OO...O..........              ",
"             .............OO...O....OO..............O.....O................O..............OO.......O..OO.....O.....             ",
"            ....OO....O.................OO....O.OO............................OOOO....OO....................OO......            ",
"           ......O...OO.................O.....OO.O............................OOOO...................................           ",
"           ........OOO............O..OOO...................OO.....OOO...................OO..............OO...........           ",
"          ....................OO.OO..................O.....OOO....OOO.....OO............O..............O.O..O.........          ",
"         .................O....O..........O.........OO.....O..............OO.........O...........OO....O....O..........         ",
"         .................OO.............OO...OOO...............................OO...OOO..........O....O....O..........         ",
"        ....OO.....O.....O..............O.....O...........................................................OO............        ",
"        ....O......O....O.O.............OO....OO.........................         ........................O.........O...        ",
"       .O.........OO...............OOO.........O................                           ..............................       ",
"       ...............OO..........OO.O..........O..........                                    .................O....O...       ",
"      ..........................................O......                                            .............O.........      ",
"      .......O....OO...............................                                                   ..........OO........      ",
"     ...OO..OO..........OO......................                                                        ..OO...............     ",
"     ...O...O...........OO........OOO.........                                                             ................     ",
"    ......................            ......                                                                 ...............    ",
"    .........O........                                                                                         .O...........    ",
"    ........O......                                                                                              ...........    ",
"   ..............                                                .........                                        ...........   ",
"   ............                                             ....OO........                                          .........   ",
"   ..........                                           ...................                     .                    ........   ",
"  ..........                                         .......................                   .....                   .......  ",
"  .........                                          .......................                  .........                 ......  ",
"  ........                                            .......................                .OO.........                .....  ",
"  .......                 ............                 .........OO....OO.....               ..O............                .... ",
" .......               ..................               ...............OO.....             .........O....O...               ... ",
" ......              ......................              ..............OO......            .........OOO.......               .. ",
" .....             .............       ......             ..................OO.           ......................              . ",
" ....             .......             ........            ....O.............OO..         .........O..O...........               ",
" ....            .                    .........            ...O.OO....OO........        ......O...................              ",
" ...            ..                   ...........            ....OO...............      ......OO.....................            ",
"....           ....                  ............           .......OOO.....O......    .....OOO.....O...............OO           ",
"...           ....O.                ..............           ......O.......O......   ..............O....O.....O......O          ",
"...          .......                ....OO....O....          .............OO....... ...............O..O.O.....OO.......         ",
"..          .........              .....O.....OO...           ................OO......................OOOO..............        ",
"..          ..........             .................          ....O.OO...........O........O.OO...................O.......       ",
".          ............           ..................          ....O.OO....OO....O.........OOO.....OO...............O......      ",
".          ............           ...................          ..................O................O......O.................     ",
".         ..............         ........O.OO........          .................O.......................OO...OOO............    ",
"          ...............        ....................          ..............................................................   ",
"          ..............O       .O..............O.....         .........................O.....O.OO.....O....................O.  ",
"         .............OOO.      .O.......O.O..OOO.....          ........O....OO.......OOO.....O..O.....OOO.......OO....O..OO... ",
"         ........OOO.......    ..........OOO...OO.....          ........O.....OO.OO.....OO.............OO...OOO..O....OO...O... ",
"         .........OOO......    ...........OO..........          OO................OOO.......................OO.............O....",
"         .........O.........  ........................          O.....OO..........O..........................O..................",
"         .OO................. ..O.....OO..............          O.....O...OO.............O.....OO.....OO............OO..........",
"         ..OO...................OO....O...............          .........OO....O.........O...OOOOO....O.........O....O..........",
"         .....O....O...............OO.................          ...........O...O...........OO......OO...........O...O...........",
"         ......O...O..........OO...O.......O..........          ..........OO........O.......OO.....O.......O....O...OO......... ",
"         ..........O..O.......OO..........OO.....O....          OO........O.........OO....................OO.............O..... ",
"         .............OO......................OO.OO...         ......OO.........O....O........................OO.........OO.... ",
"         ........................OO.OO.....O...O..OOO          ....OOO........O.O...O.....OO.OO..OO.OO.....O...O..........OOO.. ",
"          ........OO..............O..O....OO...O.....          ......O........OO....O....OO.......O..O....OO....OO............. ",
"          ........O......O...........................          ................O................................O....O......... ",
"          ..............OO...OOO....................          ............OO........................................OO........  ",
"           .............OO....OO...........O........          ....OO........OO...OO..OO...OOO.......OO...OOO..O...O....O......  ",
"           .............OO..........OO....OO..O....           .....O....O....OO.OO........O..........O........OO.OO....O......  ",
"            .......O...............OO..............          ......O..O.O.............................................OO.....   ",
"             .....OO...............O..............           .........O......................................................   ",
"             .........OOO..........O.............           ...O..........................OO.......OO........................   ",
"              .....O..O.O.....OO....O...........            ..OO..O........................OOO....OOO.......................    ",
"               ...............OO....OO....O....            .......O.....OO..O........OO....O........O....OO....O...O...O....    ",
"                .....................O....OO..            .............OO...O...OO....OO.................O....OO..OO...O....    ",
"                 ............................             ...................O....OO........................OO....O........     ",
"                   ........O................             ......O...O........OO...OO....O................O....O....OO.......     ",
"                     .......OO............              ...........OOO......O..........O.OO....OO....OO.OO................      ",
"      .                .....O...........               ...........OO.......O.................OOOOO....O.............O.....      ",
"       .                  ..........                  ........OO...........O........................................O....       ",
"       ..                                            ...OO.....O............O......................................OO....       ",
"        ..                                          .....O........O.........OO.....O..OO....OO....OO....O...OO....OO....        ",
"        ...                                        ...............OOO........O.....O...OO.........O....OO...O...........        ",
"         ....                                    ................OO..OO....OO....................O..OOO...OO...........         ",
"         .....                                  ......................OO........................OO........O............         ",
"          ......                              .....O....OO....OO..................O..O....OO..........................          ",
"           .......                          .......O.....OOO..O..................OO.OO.....O...O.....................           ",
"           ......OO.                     ..........O.......OO.............OO.OO...............OO...........OO........           ",
"            ..........O.              .............O........................OO............OO...............OOO......            ",
"             .......................................OO...........OO................O.......O....O....OO....O.......             ",
"              ..................................................OO....OO...........OO...........OO....O...........              ",
"              ......................OO....O.................O.........OO........OO....O..........OO....O..........              ",
"               .................O....OO...OO................O....OO....O........O.....OO.........OO..............               ",
"                ............OO..O..........O....OO....OOOO.............O.OO..................O........O..OO.....                ",
"                 ...........OO..............O.........OOOO................OO.OO.............OO...........O....O                 ",
"                  .....OO...OO..............O..........................................OO...OOO...............                  ",
"                   ....OOO.................O................OO...................O.....OOO...................                   ",
"                    ...O........OO..O.....OO......O.........OO.....O..OO....OO..OO.....O....................                    ",
"                     ...........O...O.....O.....OOO...OO.........OOO.......OO....................OOO.......                     ",
"                      ..........O.......O.........OOO.............O..........O....................OO......                      ",
"                       .............OO..OO....OO..................O.........OO........O...........O......                       ",
"                         ......................O..........OOO...................O.....OO.....OO........                         ",
"                          ................................OOO.......O......O....OO......O.O..OO.......                          ",
"                           ..........OOO..........OO.O..............O......OO........................                           ",
"                             ....OO....O...........OOO.............OOO.....OO......................                             ",
"                              ...........OO........................O........OO...O................                              ",
"                                .........O..................OO..................OO...OOO........                                ",
"                                  ..........................OOO....O..O.......................                                  ",
"                                    ..............O.......O...O...OO..OO....................                                    ",
"                                      ............OO......OO......O.......................                                      ",
"                                        ...................O............O...............                                        ",
"                                           .............................OO......OO...                                           ",
"                                              ....................................                                              ",
"                                                  .........O...........O......                                                  ",
"                                                        ..........O.....                                                        "
};
