/* XPM */
static char *_87462bf9c074d79b1098ad994f96459kQgq54safbIiDTP2[] = {
/* columns rows colors chars-per-pixel */
"64 64 223 2 ",
"   c gray12",
".  c #1F211E",
"X  c #3F3F00",
"o  c #20201E",
"O  c #21201E",
"+  c #21211F",
"@  c #1F1F21",
"#  c #211F20",
"$  c #1F2120",
"%  c #1F2022",
"&  c #202020",
"*  c gray13",
"=  c #222021",
"-  c #202022",
";  c #212123",
":  c gray17",
">  c #2C2C2A",
",  c #2B2B2D",
"<  c #2D2B2C",
"1  c #2B2D2C",
"2  c #2C2C2C",
"3  c #2D2D2D",
"4  c #2C2C2E",
"5  c #373737",
"6  c #383637",
"7  c #363837",
"8  c #383836",
"9  c #393836",
"0  c #393937",
"q  c #373739",
"w  c #393738",
"e  c #383639",
"r  c #373938",
"t  c gray22",
"y  c #393939",
"u  c #38383A",
"i  c #3F4100",
"p  c #404000",
"a  c #414000",
"s  c #404100",
"d  c #414101",
"f  c #404002",
"g  c #575500",
"h  c #5A5302",
"j  c #595400",
"k  c #595500",
"l  c #5A5400",
"z  c #5A5501",
"x  c #595402",
"c  c #6F6B00",
"v  c #6E6C00",
"b  c #6F6D00",
"n  c #726B00",
"m  c #706C00",
"M  c #706C01",
"N  c #716D01",
"B  c #726C00",
"V  c #716D02",
"C  c gray28",
"Z  c #474946",
"A  c #464847",
"S  c #484846",
"D  c #474749",
"F  c #494748",
"G  c #474948",
"H  c #484848",
"J  c #494949",
"K  c #48484A",
"L  c #535353",
"P  c #545253",
"I  c #535552",
"U  c #525453",
"Y  c #545452",
"T  c #555553",
"R  c #555354",
"E  c #555356",
"W  c #535554",
"Q  c gray33",
"!  c #555555",
"~  c #545655",
"^  c #545456",
"/  c #636361",
"(  c gray39",
")  c #646462",
"_  c #656462",
"`  c #656364",
"'  c #636564",
"]  c #646464",
"[  c #656565",
"{  c #666465",
"}  c #646466",
"|  c #6F6F6F",
" . c #706E6F",
".. c #70706E",
"X. c #70726F",
"o. c #716F70",
"O. c #6F7170",
"+. c gray44",
"@. c #717171",
"#. c #707072",
"$. c #7B7B7B",
"%. c #7B7D7A",
"&. c #7A7C7B",
"*. c #7C7C7A",
"=. c #7D7C7A",
"-. c #7B7B7D",
";. c #7D7B7C",
":. c #7B7D7C",
">. c #7C7C7C",
",. c gray49",
"<. c #7C7C7E",
"1. c #838300",
"2. c #838301",
"3. c #868300",
"4. c #868302",
"5. c #838500",
"6. c #848400",
"7. c #858500",
"8. c #858501",
"9. c #848402",
"0. c #9B9B00",
"q. c #9D9A00",
"w. c #9E9B00",
"e. c #9B9C00",
"r. c #9C9C00",
"t. c #9D9D00",
"y. c #9D9D01",
"u. c #B3AB00",
"i. c #B6AB01",
"p. c #B3AD01",
"a. c #B4AC00",
"s. c #B4AC01",
"d. c #B5AD02",
"f. c #B4AC03",
"g. c #B4AE02",
"h. c #CBC300",
"j. c #CDC300",
"k. c #CDC301",
"l. c #CCC302",
"z. c #CBC500",
"x. c #CBC501",
"c. c #CCC400",
"v. c #CCC401",
"b. c #CDC502",
"n. c #CDC403",
"m. c #E5D600",
"M. c #E4D700",
"N. c #E6D700",
"B. c #E5D702",
"V. c #E3D800",
"C. c #E5D800",
"Z. c #E6D900",
"A. c #E6D901",
"S. c #FBF41F",
"D. c #FBF420",
"F. c #FCF521",
"G. c #8B8B8B",
"H. c #8C8A8B",
"J. c #8A8C8B",
"K. c #8C8C8A",
"L. c #8D8C8A",
"P. c #8D8D8B",
"I. c #8D8B8C",
"U. c #8B8D8C",
"Y. c gray55",
"T. c #8D8D8D",
"R. c #8E8C8D",
"E. c #8C8C8E",
"W. c #8D8D8F",
"Q. c #979797",
"!. c #989896",
"~. c #999997",
"^. c #999798",
"/. c #979998",
"(. c #97989A",
"). c #989898",
"_. c gray60",
"`. c #989A99",
"'. c #98989A",
"]. c #A7A7A7",
"[. c #A8A6A7",
"{. c #A8A8A6",
"}. c #A9A9A7",
"|. c #A9A7A8",
" X c #A7A9A8",
".X c gray66",
"XX c #A9A9A9",
"oX c #A8A8AA",
"OX c #B4B4B2",
"+X c #B5B5B3",
"@X c #B5B3B4",
"#X c #B3B5B4",
"$X c #B4B4B4",
"%X c #B5B5B7",
"&X c #BFBFBD",
"*X c gray75",
"=X c #BFC1BE",
"-X c #C0C0BE",
";X c #C1BFC0",
":X c #BFC1C0",
">X c #C0C0C0",
",X c #C1C1C1",
"<X c #C0C0C2",
"1X c gray81",
"2X c #CFCFD1",
"3X c #D0D0D0",
"4X c gray82",
"5X c #D0D0D2",
"6X c gray86",
"7X c #DCDCDA",
"8X c #DDDDDB",
"9X c #DDDBDC",
"0X c #DBDDDC",
"qX c gainsboro",
"wX c #DDDDDD",
"eX c #DEDCDD",
"rX c #DCDCDE",
"tX c #EBEBE9",
"yX c #ECECEA",
"uX c #EDEBEC",
"iX c #ECECEC",
"pX c gray93",
"aX c #ECECEE",
/* pixels */
"2 2 2 1 2 2 > 2 2 2 2 2 2 2 2 2 2 2 2 2 2 2 2 2 > 2 2 2 2 2 > 2 2 2 2 2 2 2 2 2 2 2 2 2 2 2 2 2 2 > 2 2 2 : 2 2 < 2 2 2 1 2 1 2 ",
"Q Q Q Q Q R Q Q Q Q G qXv.v.v.v.h.7XqXqXqXqXqXu.a.a.qX& t K..XqXqXqXqXqXv.v.v.+.Y.U.Q & H S H H H H H H H H Q Q Q Y Q Y Q Q Q Q ",
"Q Q R L Q Q Q Q Q Q H qX3Xi.a.a.a.)..Xl.v.3X>X>Xv.v.Y.# t Y.>X#XH.l.>.h.0.r.r.m Q Q t & t +.r.r.w.r.:.>.>...] H H H H G H H H H ",
"Y.Y.Y.Y.Y.G.Y.Y.o Y H qX3Xi.i.a.c ).v.v.r.>X>X>X6.a.] & 5 .XqX.XY.>.v.:.m 6.m Q >.Q t & r r.l.m.r.m Y.$X>Xv.v.v.] ] l.v.Y.Y.Y.U.",
"3X$Xa.#X$X.XY.Y.& P H qX3Xr.0.6.m ).v.r..X.X).K.Y.r.Q & t Y.>XJ.Y.Y..X.X] 6.n Q +.Q t & r e.C.a.m ] $.$XqXh.C.C.H ] v.v.6.>.3X3X",
".X.Xa.a.Q ..*.+.& L H qX>Xr.6.m +.>.).[.).r.Y.o.Y.6.Q & 8 S .Xv.r..XY.Y.>.j Q +.Q Q t & t r.m.b ] Y.@XC.l.>.r.e.H ] r.6.m C U.).",
"$X).m L Y.G.U.+.& H G qX3Xe.m m >..X).!.).r.Y.!.+.Y.L   t H >.r.6.a.Y..X|.+.] +.t t t & t 6.w.m ] >.v.v.v.>.m r.H O.) H F ] a.>.",
"OX$X>.Y..XY.+.W # t C qX3XY.>.>.)..X).3X>.3.)..XY.Y.Q & t H +.Y.{.Y..XY.Y.Y..X..t t t 2 8 6.m ] Y.Y.>.x.*.>.m m H +.>.Y.+.>.6.] ",
")..X.X| +.Y.H H & 2 C qX>X.X).>./.l.).).Y.).Y.Y.{.Y.Q & & H Q +.+.Q Y t t t t t t t & t t >.] Y.>..X.X>.Y.].>.H +.Y.).Y.Y..X$./ ",
"Y.Y.Y.Y.+.Q H H & 2 H qXiX.X>.).>.v.a.+.Y.K.Y..XG.Y.Q 2 $ H H t t t t t w t t t & & t t 5 :.$X$XY.r.>.).$.;.).] +.).Y.).Y.Y..XY.",
"+.+.+.+.Q H t t & 2 H qXqXY.>.).).v.r.+..XY.|.Y..XY.Q 2 & t H t 2 2 & & & & & 2 2 t t t t >.$X>.r.H Y..XC.>.Y.+.Y.+.)./ +.Y.] ] ",
"Q Q C H H & & & & : H .XqX.X).>.l.i.r.+.).Y.I.>.Y.+.] t & 8 F H H H +..X.X.X.XqXqXm t t t +.$XK.>.] ] >.r.t Q Q ] H H H C H H C ",
"& & & & & 2 2 : 2 t Q Y.qX1XY.>.Y.w.+.K.Y..X>.G.r.Y.Y t & t H | .XF.S.0XqXqX3X3XqXv.m w t Q Y.+.] ] Q H j 5 t t t 5 t 2 2 2 2 2 ",
"2 2 2 2 2 2 2 2 2 5 Q +..X3XY..XY.Y.Y.|.Y.G.).Y./ ] Q w & 2 t .XD.l.0.Y.Y.{.Y..Xr.+.j & t w t t w t t 8 t t r 2 2 & & & & & & & ",
"t t t t t t t 5 t t Q H Y.3X.XY..X/.+.).Y.;.Y..X1.Q Q t & 2 H .Xv.6.>..XY.C.m.Y.r.Q m 5 t > > 2 2 < 2 2 2 2 2 t t t t t t t t t ",
"Q H t t t t t t 5 t Q H +.>XY..X).v.r....XG..XY.m Q +.H & 2 H .XC.6.>.Y.v.m.>.Y.6.Q j t H H Q Q Q Q & H H H H H H C H H H H H H ",
"/.).).).).).).).).2 & Q H >X>X6.Y.r.6..Xo.Y.Y.Y.+.] Q R & & H C.C.>.$.].C.C.+.Y.b R t t C C.a.a.] Y H L &.^.).).).).).).).).).).",
"3Xv.a.qXqXv.r.+.+.5 & Q H Y.>Xm ] ).] Y.+.O..XY.+.Y.+.H & & H m.-.G.:.Y.r.m ] .XY.Q t t t a.a.6.] 2 H >.>Xv.l.v.qXa..X.Xv.v.v.qX",
"v.a.6.a.a.r.m Q O.t & Q H +.).] ] Y.Y.o.Y.Q Y.+.Q +.L H & & H >.Y.>.Y.C.] ] ) L Q R t & r r.6.W ] & H ).l.v.x.>.V.r.>..Xv.e.6.+.",
"a.6..Xa.r.6.c Q o.t & G W H ).)...K./ +. .+.+.Q +.Q H 2 & & 2 .XY.o.Y.+.Q t t t t t 8 & ] r.6.+.Q & H ).l.l.>.).r.r.>.).v.r.1.+.",
"6..XI.a.0.n m Q Q t & H Q H ] Q Q r t t w t t 2 & & & & & & 2 Y.+.t t t & & & & & & & & ` Y.1.K.Y & H )..X>.Y.).r.>.>..Xl.r.6.).",
".XY..Xp.m Q Q Y.Q t & H Q H 2 2 2 <   & & & &   & & &   & & 2 5 Q t & & & & 2 2 , 2 2 2 U..XY.].Q & H U..X)..X)..X>..X>..Xr.m +.",
"I..X;.>.Q +.Y.+.Q t & t Q W H t   & & $ & & $ & H H H G H H G Y.Y.).r.r.r.r.r.>.W 2 t ` >XqX.X&X] & H Y.Y..XC.).Y..X^..X X>.;.^.",
"Y.v.r.>.Y.Y.G.] H t & t Y.v.v.a.r.Y.$X$X$X] t C ] r.v.v.v.a.3XiXiXiXv.v.l.h.a.r.6.& t >.qX>XqX.X+.& H >.)..X).Y..X).C.).;..X/..X",
"Y.r.6..XY.Y.Y.] H t & t v.a.a.r.$.>.*.>.>.t Q H r.v.a.+.Q.{..X)..X).r.>.r.6.w.6.m & t Y.qX.X.X>XC.  H C..X)..X).m.C.>..X/.)..X).",
").6.Y.Y.G.Y.+.Q t t & t a.r.6.' ` ] / ] ] & Q H ).iX/.).r.).v. X).).>..X6.:.r.m j & t Y.m.Y.Y..Xr.& H r.j +.] m.a.6.m j +.+.Q +.",
"] ] ] ] ] Q H t t t & t a.6.] ] ).6.e.m ] & C H ).iXm..X).v.6.!.v.v..X).6..X3.] j & t K.a.o.Y..Xm & H j t t H j j g j G S Q Q R ",
"Q H H t t t     & & < t i.6./ ).).>.6.n ] o H H Q.iXv..Xv.r.>.).v.6.)..X).).>.] i & t Y.+.Y..XqXj & H 2 2 & & & & & & & & t t H ",
"& & o & & & 2 1 2 H H H iX] Q..X6.Y.6.m ` & t H ).tXu.^.v.m >..X)..X).>.a.6.*.] p $ t C.iX.XqX.XQ & H t t t t 2 2 2 & & & & & & ",
"H ` ) +.Y./.U.Y.I.Y.H & uX/.)..X6.Y.) >.] p & H ).iXa..Xr.m >.).>.)..X).a.6.;.Q p & t a.iX>X>X.XQ & H t t t t t t t t 8 t 5 t t ",
"] Y.$Xa.i.Y.|..X.X.X] & iX.X3XU.m .XY.*.] p & H ).iX|.v.e.m >.)..X.X).{.a.6.Y.P p & m 0.qX.X.Xa.Q & C m r.r.r.p.a.6.6.C H H S Q ",
"] $Xa.a.6.] .X|..X.XH   iX.X)..X*.K.>.Y.] p & H >.).x.r.m +.:.{.).).>.).a.6.] Q p $ t r.qXqXa.r.Q o H +.r.m r.r.r.a.a.i.6./.t Q ",
"] a.r.6.] Y..Xa.i.+.] & iX3X.X)..X3.Y..X] p & t Y ).r.m >.>.Y.)..X>.).>.a.6.+.H t & t r.qX|.a.m Q & H ).+.o.r.r.3.6.m m m >.t Q ",
"] a.r.+.+..X..a.6.+.] & yX).Y.!..XY.Y.>.] p & 2 Q .XuX.Xv.v.r.K.>.>.>.:.a.6.] H 2 & m I.3X>Xa.j L & H 7X.X{.r.m +.+.j ] O.] t H ",
"/ +.G..XK.+.Y.a.m +.Y # qX.X.X{.)..X|.>.] p & 2 Q Y.iX>Xv.1.m >.).).I..Xr.6.] H & & r.Y.3X.X6.m p & H 3X.XY.r.m Y.>.).] /.] t H ",
"] .X.XI..X.Xi.0.m +.Q & qX>X>.).l.a.>.Y.] p & & H +.3X>X6.m ] >.K..X).a.w.] ] t & & H Y.3XY.m j p & G >X.X.Xw.m >.K./.)..XY t S ",
"] qX)..XY.Y.5.m m +.Q & >XqXY.).p.6.Y..X] X p $ H Q $XqXm ] >.Y..XI.6.] ] ] +.t & r H >..X>.m p j t H .X.XY.w.6.o.).>.+.).Q t t ",
") qX.X.XY.!.m m +.+.Q & $XqX>. XY.Y.Y.U.] p X & t Q Y.>X).$.>.+.O.+.' ' +.+.Q t & w H Q t t j j t 8 H +.Q H W W Q Q Q W Y Q t t ",
"/ qX$XY.a.6.Y.+.Y.).Q & ).qX.X>..X.X>.Y.' R p & t W H Y.Y.+.+.W Q H & p H Q H & o w H Q H C t t t H H & & & & & &   &   & & & r ",
"] qX@X.XY.!.Y.a.r.+.Q o >.9X).).{.Y.] Y.>.Q p & 2 H H t 1 2 2 &   2 : 2 t t t t t r H S H A H H H H H H H C t t t t t t t t t t ",
") 6Xu.a.).Y.a.r.6.+.Q & Q iX]..XY.Y.Y.{.>.Q j & 2 H H H w t w t t H H C Q Q / ] ` +.+.>.>.>.>.>.6.6.6.6.:.>.>.>.$.>.>.$.>.>.t Q ",
"] a.a.6.|.).r.m n ] Y   H iX).Y.r.>.Y.*.>.Q j & 2 t / r.w.w.r.r.e.r.6.>.;.Y.).)..X]..X.X.X$X$Xv.v.v.p.6.>X>XC.a.>Xv.a.6.>X;.t Q ",
"] a.3.>.)./.Y.m m ]   < H iX.XY.6.] .XY.] Q j & & t m v.v.v.v.v.v.v.v.r..X>X.X;X).-X.X-X>X;Xv.a.1.6.6.$X$XC.u.>X>Xa.a.a.3.] 2 H ",
"] a.6.>..XY.Y.Y.Y.L & 2 H iXY..X/ ] H.Y.] Q j & & 8 m v.a.a.a.a.a.a.a.6..X>X.X.X>Xv.r.)..X/.a.6..X).v.v.a.>.G.>Xa.r.a.5.>.Q > H ",
"] a.6.G.Y..XK..XY.Q & 5 H qX.X.X.X.XY..X] Q p & & t 2 a.a.r.r.r.r.r.r.6.n I.>X.X.Xr.r.{..X).>X)..Xv.a.a.>.Y.)..X+.+.a.+.+.Q 2 w ",
"H 6.>.U..XY.[.Y.] Q & t H 3XY.Y..XY.I.I.] W t & & t 2 Y.Y.G.r.6.r.6.6.m m ...X>X.XY.>.).>X).)..Xv.>.>.>.)..X|.).Y.Y.a.+.| U 2 t ",
"H Y.Y.Y.Y.>.] R U & 2 t S $X.XG.Y. XY.>.' Q 8 & # q 2 >XqX>Xr.m m m m +.+.Y..X>XU.$XY.).).l.l.).K.>.| Y.Y.C.a.$X.XG.a.+.+.Q 2 t ",
"H >.>.+.] Q W L Q # 2 t F /.)..XY.K.Y.+.] Q t & & t 2 $XqX3X3.+.+.O.+.>.).U.r..X$X{.Y.#Xv..XY.K..XY.G.).$Xa.6..X)./.O.O.+.Q   t ",
"H t   Q Q Q R Q Q o 5 H F >.] ] ] ] ] ] Q Q t &   t > .XqX3X+.>.K.U.i.a.6.OXY.Y.$X)..X$X[.G.a..Xa..X^.$Xa.1.)..X.X).a.a.+.Q & w ",
"Q Q Q 2 : & & 2 & 2 t H t t t t t t t t t t t & & 2 2 Y.3X$XY.@X).$Xa.a.c Y.$XY.OX).Y.Y.m.a.m ^..X>X)..X).)..X).Y.Y.$X;.+.Q & t ",
"H H H C t t < : > 2 t H t t & & & & $ & & # & & &   2 Y.).+.+.+.+.+.6.c m Y..X+.>.Y.$XC.a.m .XY..X).Y.Y.$X>.Y.Y.v.!.Y.!.+.Q & 5 ",
"G >..Xv.v.v.r.Y.] G S Q t 5 2 2 2 2 > 2 2 2 2 1 2 : t Q H t 2 1 2 2 2 2 Q +.+.>.Y.i.$Xm m >.>.+.] >.Y.K.Y.>.>.$X>.] >.>.] Q & t ",
"H .Xv.C.v.v.v.v.a.w..XU.+.] Q H t t t t t w t 5 t t H Q H A t t t t t t 1 H Q Q Q Q Q Q Q Q Q Q Q U Q Q Q Q Q Q Q R Q Q Q & 2 t ",
"H .Xv.C.a.Y.Y.Y.!..X>Xa.C.C.v.v.v.a.a.a.a.a.6.+.>.+./ ] Q Q H H H H F t t 2 2 < 2 2 & & 2 2 2 2 2 2   & & $ $ & & & o # & 2 t H ",
"H .X>X).a.).>X>X$X>X$X&X.XY.Y.r.r.r.r.r.r.r.r.1.Y.Y.>X.X.X.X.X.XY.H Y H 5 t w t t 7 t t 8 2 1 2 2 2 2 2 < 2 < 2 2 2 1 2 t t S H ",
"H .X>X>X).&X@X.X.X).:X.X$X>X$X.XY.Y.Y.U.Y.6.5.6.Y.).&XqXm.C.Y.=X>.t H Q H H C t t t t t t t t t t t t t t t t t t t t t H H H Q ",
"H .XOX3X>X$X>XC.a.3.$X$X3X.X3X>X>Xv.0.).Y.U.Y.Y.J.OX.XY.m.6.Y.>.] & t Q G 6.a.a.i.] H H H Q Y Q m a.r.6.m m j H H F H H Q Q R Q ",
"H .X>X>X.XK.>.a.6.j >X.X>X2X.X.X|.3X>X>X.X>X.X3X.X>..X3X.XY.Y.] Q & t H H i.6.1.6.] qX7X$XQ L w.l.v.v.r.&.l..X.X3Xv.$X).>.H H Q ",
"D .XY.+.] ] ] 3.j +.>.+.) O.>.+.] ] ] +.>.Y..XY.>.] ] ] ] ] ] Q Q t . t H ] 6.6.m ] $X$X$X] Q Y.>.>.>.:.>..X.XY.v.r.+..X0X).  Q ",
"H Y.] H t w t t t t t t t t t t t t t t t t t t t t 6 t t t t t t t $ 2 H $X6.m ] ).] ).K.] G Y.Y..XG..Xv.v..X.Xr.6.+.Y..XQ & Q ",
"S t & & & & & o & # & $ & @ & $ & & & & o & & # &   & & o $ $   & # & 2 H t p j Q ) ] ) ] ] H ` ] )..Xv.v.r.>..X6.+.+.Y.G.Q & Q ",
"Q H t 8 t 2 2 < 2 2 2 2 1 2 2 2 2 2 2 2 2 2 2 2 2 2 2 2 2 2 1 2 2 2 2 2 t C p p t & & & & & t H Q Q m h Q Q Q m j Q Y Q Q Y & Q ",
"L L Q Q H H A H H H H H t t r t t 5 t t t t t t t t t t t t t w t r t t 5 H H H H t t 5 t t t H H & # & & $ &   & & & & $ & & Q ",
"t t t t r t t t t t r t 8 t t t t t t 5 8 t t t t t t 8 t t t t t t t t t r r t 5 t t t t t 5 t t 8 t t t t w t t w t t r t t t "
};
