/* XPM */
static char *abf677384ddc4c28bfdf015a8989b54eYxKlHnBskj4wZyKT[] = {
/* columns rows colors chars-per-pixel */
"127 128 15 1 ",
"  c None",
". c #40C8CA",
"X c #40C9CA",
"o c #40C8CB",
"O c #41C8CB",
"+ c #40C9CB",
"@ c #41C9CB",
"# c #40CACB",
"$ c #41CACB",
"% c #40C9CC",
"& c #41C9CC",
"* c #40CACC",
"= c #41CACC",
"- c #40CBCC",
"; c #41CBCC",
/* pixels */
"                                                        #=============#                                                        ",
"                                                  #=========================#                                                  ",
"                                              #=================================#                                              ",
"                                           #========================================                                           ",
"                                        ##=============================================                                        ",
"                                      ==================================================#                                      ",
"                                   =======================================================#=                                   ",
"                                  #=========================================================#                                  ",
"                                ===============================================================                                ",
"                              #==================================================================                              ",
"                             =====================================================================                             ",
"                           #=========#####==========================================================                           ",
"                          ===========#       =####===================================================                          ",
"                        ##===========#                #===============================================                         ",
"                       =#==============                    ##===========================================                       ",
"                      ==================                        #========================================                      ",
"                     ====================                           ======================================                     ",
"                    #========##=   #=====                              ###=================================                    ",
"                   #=========#      #=====                                ###===============================                   ",
"                  #========#         #====#                                 ##===============================                  ",
"                 #========           #====##                                   #==============================                 ",
"                ========#             =====#                                     #=============================                ",
"               ========#              ======#                                      #============================               ",
"              ========#              #=======                                        ============================              ",
"             #=======#               #=======#                                        #==========================#             ",
"             #======#               #========#                                          ##=======================#             ",
"            ========              ============#                                          ##========================            ",
"           #=======              #=============#                                           =========================           ",
"           ======##            =================                                            ##======================           ",
"          ========            #=================                                             #=======================          ",
"         #=======            #==================#                                             #=======================         ",
"         =======#           =====================                                              #======================         ",
"        ========          =======================#                                              #=====================#        ",
"        #======          #========================                                               ======================        ",
"       #=======         #=========================#                                               #====================#       ",
"      #=======         #===========================                                               #======================      ",
"      #=======        #===========================#                                                =====================#      ",
"     #=======        ##=============================                                                ====================#      ",
"     #======#        ==============================#                                                ##===================#     ",
"     #======        ===============================#                                                 #===================#     ",
"    #=======       #===============================##                                                #====================#    ",
"    #======#       =================================#                                                 =====================    ",
"    ========      #=================================#                                                 #====================    ",
"   #========      ==================================#                                                  ====================#   ",
"   #========     =====================================                                                 ====================#   ",
"   =========     ====================================#                                                 #====================   ",
"  #=========     ====================================#                                                  ====================#  ",
"  =========#     ====================================#                                                  =====================  ",
"  =========#     =====================================                                                  =====================  ",
"  =========#     =====================================                                                  =====================  ",
" #=========#      ====================================                                                  ====================== ",
" #===========     ====================================                                                  =====================# ",
" ===========#      #==================================                                                  ====================== ",
" =============      #==================================                                                ======================= ",
" =============       ==================================                                               #======================= ",
" ==============        #==============================                                                ======================== ",
"#==============#        ##============================                                               #=========================",
"================           ===========================                                              ##========================#",
"=================             #======================#                                              #=========================#",
"==================                             ======#                                             #===========================",
"===================                             =====#                                            #============================",
"===================#                            =====#                                            =============================",
"=====================                            #====                                           ==============================",
"======================                           #==#                                           #==============================",
"========================                         #==#                                          ================================",
"=========================                        ===#                                          ===========#====================",
"=========================#                       ===#                                         ==========   ====================",
"=========================#=                      ===#                                        #=======#      #==================",
"#============================                    ===#                                       =======##       ===================",
"#=============================                   ===#                                       =======          #=================",
"#===============================                 #==#                                      =====##           #=================",
"#================================#               #==#                                     #=====             =================#",
" ==================================#            ##==#                                    #===##              ================= ",
" ====================================#          #====                                   =#===#                ================ ",
" ========================================       #===#                                  ======                 ================ ",
" #========================================#=#  #====##                                =====#                  #=============== ",
" #==========================================####======                                ===##                   ================ ",
"  ====================================================                               ===##                    ===============  ",
"  ====================================================                              #==##                     ===============  ",
"  ====================================================#                            #==##                      ===============  ",
"  #===================================================#                           #===#                       ===============  ",
"   ===================================================#                          #====                        ==============   ",
"   ====================================================#                        ====#                         =============#   ",
"   #===================================================#                      ======                          =============#   ",
"    =====================================================                    ======                          ==============    ",
"    #====================================================                   =====#                          #==============    ",
"    #=====================================================                 #=====#                         ================    ",
"     #=====================================================               =====##                          ===============     ",
"     #=====================================================##           =======#                          #==============#     ",
"     ========================================================#         #=======                          #================     ",
"      #========================================================##=   ========##                         =======  #======#      ",
"      #======================================================================#                          ======    =======      ",
"       #=====================================================================                          ======     #====#       ",
"       #====================================================================                          =====       #=====       ",
"        #===================================================================                         #==##        ====#        ",
"         ==================================================================                         #===#          ===         ",
"         ==================================================================                        #=##            ===         ",
"          =================================================================#                      #==#             ==          ",
"          #==================================================================#                   #===              ==          ",
"           =====================================================================                #===               #           ",
"            ====================================================================#=             #==#                            ",
"            ======================================================================##          #===                             ",
"             #=========================================================================     #====                              ",
"              =#========================================================================#  =====#                              ",
"               #================================================================================                               ",
"                ================================================================================                               ",
"                 ==============================================================================                                ",
"                  ============================================================================#                                ",
"                   ============================================================================                                ",
"                    ============================================================================#=                             ",
"                     ================================================================================                          ",
"                      ##===============================================================================                        ",
"                       ##=============================================================================##                       ",
"                        ##============================================================================#                        ",
"                         #============================================================================                         ",
"                           #=======================================================================#                           ",
"                            #=====================================================================#                            ",
"                              #==================================================================                              ",
"                                #=============================================================#                                ",
"                                 ##=========================================================##                                 ",
"                                   ##======================================================#                                   ",
"                                     ##================================================##=                                     ",
"                                        ##===========================================##                                        ",
"                                          ##=======================================#=                                          ",
"                                             ===================================##                                             ",
"                                                 #==========================##                                                 ",
"                                                       ##==============#                                                       ",
"                                                                                                                               "
};
