/* XPM */
static char *_ee04e6c797040e8b0132b86093b2e374EEg5iVfTkwEhrcA[] = {
/* columns rows colors chars-per-pixel */
"128 128 9 1 ",
"  c None",
". c #9D27E1",
"X c #9E27E1",
"o c #9D27E2",
"O c #9E27E2",
"+ c #9D28E1",
"@ c #9E28E1",
"# c #9D28E2",
"$ c #9E28E2",
/* pixels */
"                                                        X@X@X@@@@@@XXX@X                                                        ",
"                                                  XX@@@@@@@@@@@@@@@@@@@@@@@X@X                                                  ",
"                                              X@@@@@@@@@@@@@@@@@@@@@@@@@@@@@@@@XXX                                              ",
"                                           X@@@@@@@@@@@@@@@@@@@@@@@@@@@@@@@@@@@@@@@X@                                           ",
"                                        @@@@@@@@@@@@@@@@@@@@@@@@@@@@@@@@@@@@@@@@@@@@@@@@                                        ",
"                                      @@@@@@@@@@@@@@@@@@@@@@@@@@@@@@@@@@@@@@@@@@@@@@@@@@@X                                      ",
"                                    @@@@@@@@@@@@@@@@@@@@@@@@@@@@@@@@@@@@@@@@@@@@@@@@@@@@@@@@                                    ",
"                                  @@@@@@@@@@@@@@@@@@@@@@@@@@@@@@@@@@@@@@@@@@@@@@@@@@@@@@@@@@@@                                  ",
"                                X@@@@@@@@@@@@@@@@@@@@@@@@@@@@@@@@@@@@@@@@@@@@@@@@@@@@@@@@@@@@@@@                                ",
"                              @X@@@@@@@@@@@@@@@@@@@@@@@@@@@@@@@@@@@@@@@@@@@@@@@@@@@@@@@@@@@@@@@@@@                              ",
"                             @@@@@@@@@@@@@@@@@@@@@@@@@@@@@@@@@@@@@@@@@@@@@@@@@@@@@@@@@@@@@@@@@@@@@@                             ",
"                           @@@@@@@@@@@@@@@@@@@@@@@@@@@@@@@@@@@@@@@@@@@@@@@@@@@@@@@@@@@@@@@@@@@@@@@@@@                           ",
"                          @@@@@@@@@@@@@@@@@@@@@@@@@@@@@@@@@@@@@ @@@@@@@@@@@@@@@@@@@@@@@@@@@@@@@@@@@@@@                          ",
"                         @@@@@@@@@@@@@@@@@@@@@@@@@@@@@@@@@@@@@@ X@@@@@@@@@@@@@@@@@@@@@@@@@@@@@@@@@@@@@@                         ",
"                       X@@@@@@@@@@@@@@@@@@@@@@@@@@@@@@@@@@@@@@@  @@@@@@@@@@@@@@@@@@@@@@@@@@@@@@@@@@@@@@@@                       ",
"                      @@@@@@@@@@@@@@@@@@@@@@@@@@@@@@@@@@@@@@@@   @@@@@@@@@@@@@@@@@@@@@@@@@@@@@@@@@@@@@@@@@                      ",
"                     @@@@@@@@@@@@@@@@@@@@@@@@@@@@@@@@@@@@@@@@@   @@@@@@@@@@@@@@@@@@@@@@@@@@@@@@@@@@@@@@@@@@                     ",
"                    @@@@@@@@@@@@@@@@@@@@@@@@@@@@@@@@@@@@@@@@@@    @@@@@@@@@@@@@@@@@@@@@@@@@@@@@@@@@@@@@@@@@X                    ",
"                   @@@@@@@@@@@@@@@@@@@@@@@@@@@@@@@@@@@@@@@@@@     @@@@@@@@@@@@@@@@@@@@@@@@@@@@@@@@@@@@@@@@@@@                   ",
"                  @@@@@@@@@@@@@@@@@@@@@@@@@@@@@@@@@@@@@@@@@@X     @@@@@@@@@@@@@@@@@@@@@@@@@@@@@@@@@@@@@@@@@@@@                  ",
"                 @@@@@@@@@@@@@@@@@@@@@@@@@@@@@@@@@@@@@@@@@@@@      @@@@@@@@@@@@@@@@@@@@@@@@@@@@@@@@@@@@@@@@@@@X                 ",
"                @@@@@@@@@@@@@@@@@@@@@@@@@@@@@@@@@@@@@@@@@@@@       @@@@@@@@@@@@@@@@@@@@@@@@@@@@@@@@@@@@@@@@@@@@@                ",
"               @@@@@@@@@@@@@@@@@@@@@@@@@@@@@@@@@@@@@@@@@@@@@       @@@@@@@@@@@@@@@@@@@@@@@@@@@@@@@@@@@@@@@@@@@@@@               ",
"              @@@@@@@@@@@@@@@@@@@@@@@@@@@@@@@@@@@@@@@@@@@@@@        @@@@@@@@@@@@@@@@@@@@@@@@@@@@@@@@@@@@@@@@@@@@@X              ",
"              @@@@@@@@@@@@@@@@@@@@@@@@@@@@@@@@@@@@@@@@@@@@@         @@@@@@@@@@@@@@@@@@@@@@@@@@@@@@@@@@@@@@@@@@@@@@              ",
"             X@@@@@@@@@@@@@@@@@@@@@@@@@@@@@@@@@@@@@@@@@@@@@         @@@@@@@@@@@@@@@@@@@@@@@@@@@@@@@@@@@@@@@@@@@@@@@             ",
"            @@@@@@@@@@@@@@@@@@@@@@@@@@@@@@@@@@@@@@@@@@@@@@@          @@@@@@@@@@@@@@@@@@@@@@@@@@@@@@@@@@@@@@@@@@@@@@@            ",
"           @@@@@@@@@@@@@@@@@@@@@@@@@@@@@@@@@@@@@@@@@@@@@@@           @@@@@@@@@@@@@@@@@@@@@@@@@@@@@@@@@@@@@@@@@@@@@@@X           ",
"           @@@@@@@@@@@@@@@@@@@@@@@@@@@@@@@@@@@@@@@@@@@@@@@           X@@@@@@@@@@@@@@@@@@@@@@@@@@@@@@@@@@@@@@@@@@@@@@@           ",
"          @@@@@@@@@@@@@@@@@@@@@@@@@@@@@@@@@@@@@@@@@@@@@@@@            @@@@@@@@@@@@@@@@@@@@@@@@@@@@@@@@@@@@@@@@@@@@@@@X          ",
"         @@@@@@@@@@@@@@@@@@@@@@@@@@@@@@@@@@@@@@@@@@@@@@@@             @@@@@@@@@@@@@@@@@@@@@@@@@@@@@@@@@@@@@@@@@@@@@@@@@         ",
"         @@@@@@@@@@@@@@@@@@@@@@@@@@@@@@@@@@@@@@@@@@@@@@@@             @@@@@@@@@@@@@@@@@@@@@@@@@@@@@@@@@@@@@@@@@@@@@@@@@         ",
"        @@@@@@@@@@@@@@@@@@@@@@@@@@@@@@@@@@@@@@@@@@@@@@@@@              @@@@@@@@@@@@@@@@@@@@@@@@@@@@@@@@@@@@@@@@@@@@@@@@@        ",
"        @@@@@@@@@@@@@@@@@@@@@@@@@@@@@@@@@@@@@@@@@@@@@@@@               @@@@@@@@@@@@@@@@@@@@@@@@@@@@@@@@@@@@@@@@@@@@@@@@@        ",
"       @@@@@@@@@@@@@@@@@@@@@@@@@@@@@@@@@@@@@@@@@@@@@@@@X               @@@@@@@@@@@@@@@@@@@@@@@@@@@@@@@@@@@@@@@@@@@@@@@@@@       ",
"       @@@@@@@@@@@@@@@@@@@@@@@@@@@@@@@@@@@@@@@@@@@@@@@@X                @@@@@@@@@@@@@@@@@@@@@@@@@@@@@@@@@@@@@@@@@@@@@@@@@       ",
"      @@@@@@@@@@@@@@@@@@@@@@@@@@@@@@@@@@@@@@@@@@@@@@@@@@                @@@@@@@@@@@@@@@@@@@@@@@@@@@@@@@@@@@@@@@@@@@@@@@@@@      ",
"      @@@@@@@@@@@@@@@@@@@@@@@@@@@@@@@@@@@@@@@@@@@@@@@@@                 @@@@@@@@@@@@@@@@@@@@@@@@@@@@@@@@@@@@@@@@@@@@@@@@@@      ",
"     X@@@@@@@@@@@@@@@@@@@@@@@@@@@@@@@@@@@@@@@@@@@@@@@@@                  @@@@@@@@@@@@@@@@@@@@@@@@@@@@@@@@@@@@@@@@@@@@@@@@@@     ",
"     @@@@@@@@@@@@@@@@@@@@@                                                                           @@@@@@@@@@@@@@@@@@@@@@     ",
"    @@@@@@@@@@@@@@@@@@@@@@@                                                                         @@@@@@@@@@@@@@@@@@@@@@@X    ",
"    X@@@@@@@@@@@@@@@@@@@@@@X                                   @                                   @@@@@@@@@@@@@@@@@@@@@@@@@    ",
"    @@@@@@@X@@@@@@@@@@@@@@@@@@                                 @@                                 X@@@@@@@@@@@@@@@@@@@@@@@@@    ",
"   @@@@@       @@@@@@@@@@@@@@@@                                @@                               @@@@@@@@@@@@@@@@@@@@@@@@@@@@@   ",
"   @@@X           @@@@@@@@@@@@@@X                             @@@                              @@@@@@@@@@@@@@@@@@@@@@@@@@@@@@   ",
"   @@X              X@@@@@@@@@@X@@                            @@@@                           @@@@@@@@@@@@@@@@@@@@@@@@@@@@@@@@   ",
"  @@@                @@X@X                                    @@@@                          @@@@@@@@@@@@@@@@@@@@@@@@@@@@@@@@@X  ",
"  @@@                                                        @@@@@                         @@@@@@@@@@@@@@@@@@@@@@@@@@@@@@@@@@X  ",
"  @@                                                 @@@@@@@@@@@@@@@@@@@@X               @@@@@@@@@@@@@@@@@@@@@@@@@@@@@@@@@@@@@  ",
"  @@                                                   @@@@@@@@@@@@@@@@@X               @@@@@@@@@@@@@@@@@@@@@@@@@@@@@@@@@@@@@@  ",
" X@@                                                    X@@@@@@@@@@@@@@X               @@@@@@@@@@@@@@@@@@@@@@@@@@@@@@@@@@@@@@@@ ",
" @@@                                                     X@@@@@@@@@@@X               @@@@@@@@@@@@@@@@@@@@@@@@@@@@@@@@@@@@@@@@@X ",
" X@@                                                      X@@@@@@@@@@               @@@@@@@@@@@@@@@@@@@@@@@@@@@@@@@@@@@@@@@@@@@ ",
" @@X                                                        X@@@@@@@@             @@@@@@@@@@@@@@@@@@@@@@@@@@@@@@@@@@@@@@@@@@@@@ ",
" @@@                                                         @@@@@@@@            @@@@@@@@@@@@@@@@@@@@@@@@@@@@@@@@@@@@@@@@@@@@@@ ",
"X@@X                       @X@@@@@@@@@X@X@                     X@@@@@           X@@@@@@@@@@@@@@@@@@@@@@@@@@@@@@@@@@@@@@@@@@@@@@ ",
"X@@@                   @@@@@@@@@@@@@@@@@@@@@@                   X@@@@         @@@@@@@@@@@@@@@@@@@@@@@@@@@@@@@@@@@@@@@@@@@@@@@@@@",
"X@@                  @@@@@@@@@@@@@@@@@@@@@@@@@@@                  @@@         @@@@@@@@@@@@@@@@@@@@@@@@@@@@@@@@@@@@@@@@@@@@@@@@@X",
"X@                @@@@@@@@@@@@@@@@@@@@@@@@@@@@@@@@                  @         X@@@@@@@@@@@@@@@@@@@@@@@@@@@@@@@@@@@@@@@X@XX@@@@@@",
"X                @@@@@@@@@@@@@@@@@@@@@@@@@@@@@@@@@@@                          X@@@@@@@@@@@@@@@@@@@@@@@@@@@@@@@@@@@         @@@@@",
"               @@@@@@@@@@@@@@@@@@@@@@@@@@@@@@@@@@@@@@X                        @@@@@@@@@@@@@@@@@@@@@@@@@@@@@@@@@X            @@@X",
"               @@@@@@@@@@@@@@@@@@@@@@@@@@@@@@@@@@@@@@@@@                       @@@@@@@@@@@@@@@@@@@@@@@@@@@@@@                @@@",
"               @@@@@@@@@@@@@@@@@@@@@@@@@@@@@@@@@@@@@@@@@@                      @@@@@@@@@@@@@@@@@@@@@@@@@@@@                   X@",
"               X@@@@@@@@@@@@@@@@@@@@@@@@@@@@@@@@@@@@@@@@@X                     @@@@@@@@@@@@@@@@@@@@@@@@@X                     @@",
"                @@@@@@@@@@@@@@@@@@@@@@@@@@@@@@@@@@@@@@@@@@@@                   X@@@@@@@@@@@@@@@@@@@@@@@                        @",
"                @@@@@@@@@@@@@@@@@@@@@@@@@@@@@@@@@@@@@@@@@@@@@                  X@@@@@XXX@@@@@@@@@@@@@X                         @",
"                 @@@@@@@@@@@@@@@@@@@@@@@@@@@@@@@@@@@@@@@@@@@@@                              XXX@@@@X                           @",
"      @          @@@@@@@@@@@@@@@@@@@@@@@@@@@@@@@@@@@@@@@@@@@@@@                                 @XX                            X",
"     @@          @@@@@@@@@@@@@@@@@@@@@@@@@@@@@@@@@@@@@@@@@@@@@@X                                                    @          @",
"    X@@X          @@@@@@@@@@@@@@@@@@@@@@@@@@@@@@@@@@@@@@@@@@@@@@@                                                 @@@         XX",
"   X@@@@          @@@@@@@@@@@@@@@@@@@@@@@@@@@@@@@@@@@@@@@@@@@@@@@                                               @@@@          XX",
"   @@@@@X         X@@@@@@@@@@@@@@@@@@@@@@@@@@@@@@@@@@@@@@@@@@@@@@@                                            X@@@@@          @@",
"  @@@@@@@          @@@@@@@@@@@@@@@@@@@@@@@@@@@@@@@@@@@@@@@@@@@@@@@@                                         @@@@@@@           @ ",
" @@@@@@@@          @@@@@@@@@@@@@@@@@@@@@@@@@@@@@@@@@@@@@@@@@@@@@@@@                                          X@@@@@          X@ ",
" @@@@@@@@X          @@@@@@@@@@@@@@@@@@@@@@@@@@@@@@@@@@@@@@@@@@@@@@@@                                          @@@@           @@ ",
" @@@@@@@@@          @@@@@@@@@@@@@@@@@@@@@@@@@@@@@@@@@@@@@@@@@@@@@@@@          X@@@@@@@@@XXX                    @@@          @@@ ",
" @@@@@@@@@@          @@@@@@@@@@@@@@@@@@@@@@@@@@@@@@@@@@@@@@@@@@@@@@@@          @@@@@@@@@@@@@@XX                 X           X@@ ",
" @@@@@@@@@@          @@@@@@@@@@@@@@@@@@@@@@@@@@@@@@@@@@@@@@@@@@@@@@@@          @@@@@@@@@@@@@@@@@@@                         @@@@ ",
"  @@@@@@@@@           @@@@@@@@@@@@@@@@@@@@@@@@@@@@@@@@@@@@@@@@@@@@@@@@         X@@@@@@@@@@@@@@@@@@@@                       @@@  ",
"  @@@@@@@@@@          @@@@@@@@@@@@@@@@@@@@@@@@@@@@@@@@@@@@@@@@@@@@@@@@          @@@@@@@@@@@@@@@@@@@@@                     @@@@  ",
"  @@@@@@@@@@          @@@@@@@@@@@@@@@@@@@@@@@@@@@@@@@@@@@@@@@@@@@@@@@@@         X@@@@@@@@@@@@@@@@@@@@@@                   @@@@  ",
"  @@@@@@@@@@X          @@@@@@@@@@@@@@@@@@@@@@@@@@@@@@@@@@@@@@@@@@@@@@@@         @@@@@@@@@@@@@@@@@@@@@@@@                 @@@@@  ",
"   @@@@@@@@@@          X@@@@@@@@@@@@@@@@@@@@@@@@@@@@@@@@@@@@@@@@@@@@@@@          @@@@@@@@@@@@@@@@@@@@@@@@               @@@@@   ",
"   @@@@@@@@@@@          @@@@@@@@@@@@@@@@@@@@@@@@@@@@@@@@@@@@@@@@@@@@@@@X         @@@@@@@@@@@@@@@@@@@@@@@@XX             @@@@@   ",
"   @@@@@@@@@@@          X@@@@@@@@@@@@@@@@@@@@@@@@@@@@@@@@@@@@@@@@@@@@@@X         @@@@@@@@@@@@@@@@@@@@@@@@@@            @@@@@@   ",
"    @@@@@@@@@@           @@@@@@@@@@@@@@@@@@@@@@@@@@@@@@@@@@@@@@@@@@@@@@@         @@@@@@@@@@@@@@@@@@@@@@@@@@            @@@@@    ",
"    @@@@@@@@@@@          @@@@@@@@@@@@@@@@@@@@@@@@@@@@@@@@@@@@@@@@@@@@@@@         X@@@@@@@@@@@@@@@@@@@@@@@@@             @@@@    ",
"    @@@@@@@@@@@           @@@@@@@@@@@@@@@@@@@@@@@@@@@@@@@@@@@@@@@@@@@@@@@        X@@@@@@@@@@@@@@@@@@@@@@@X               @@@    ",
"     @@@@@@@@@@@          @@@@@@@@@@@@@@@@@@@@@@@@@@@@@@@@@@@@@@@@@@@@@@@        @@@@@@@@@@@@@@@@@@@@@@@@                @@     ",
"     @@@@@@@@@@@           @@@@@@@@@@@@@@@@@@@@@@@@@@@@@@@@@@@@@@@@@@@@@@         @@@@@@@@@@@@@@@@@@@@@@                  @     ",
"      @@@@@@@@@@           @@@@@@@@@@@@@@@@@@@@@@@@@@@@@@@@@@@@@@@@@@@@@@         @@@@@@@@@@@@@@@@@@@@@@                        ",
"      @@@@@@@@@@@           @@@@@@@@@@@@@@@@@@@@@@@@@@@@@@@@@@@@@@@@@@@@@         @@@@@@@@@@@@@@@@@@@@@                         ",
"       @@@@@@@@@@           @@@@@@@@@@@@@@@@@@@@@@@@@@@@@@@@@@@@@@@@@@@@@         @@@@@@@@@@@@@@@@@@@@                          ",
"       @@@@@@@@@@@           @@@@@@@@@@@@@@@@@@@@@@@@@@@@@@@@@@@@@@@@@@@@         @@@@@@@@@@@@@@@@@@@@           @              ",
"        @@@@@@@@@@           @@@@@@@@@@@@@@@@@@@@@@@@@@@@@@@@@@@@@@@@@@@@         @@@@@@@@@@@@@@@@@@@           @@              ",
"        @@@@@@@@@@@           @@@@@@@@@@@@@@@@@@@@@@@@@@@@@@@@@@@@@@@@@@@         @@@@@@@@@@@@@@@@@@            @@              ",
"         @@@@@@@@@@           @@@@@@@@@@@@@@@@@@@@@@@@@@@@@@@@@@@@@@@@@@X         @@@@@@@@@@@@@@@@@            @@@@             ",
"         @@@@@@@@@@@           @@@@@@@@@@@@@@@@@@@@@@@@@@@@@@@@@@@@@@@@@@         @@@@@@@@@@@@@@@@X           @@@@@             ",
"          @@@@@@@@@@           @@@@@@@@@@@@@@@@@@@@@@@@@@@@@@@@@@@@@@@@@@        X@@@@@@@@@@@@@@@@           @@@@@@@            ",
"           @@@@@@@@@            @@@@@@@@@@@@@@@@@@@@@@@@@@@@@@@@@@@@@@@@X        X@@@@@@@@@@@@@@X            @@@@@@X            ",
"           @@@@@@@@@@           @@@@@@@@@@@@@@@@@@@@@@@@@@@@@@@@@@@@@@@@         @@@@@@@@@@@@@@@            @@@@@@@@            ",
"            @@@@@@@@@            @@@@@@@@@@@@@@@@@@@@@@@@@@@@@@@@@@@@@@@         @@@@@@@@@@@@@@            X@@@@@@@@            ",
"             @@@@@@@@X           @@@@@@@@@@@@@@@@@@@@@@@@@@@@@@@@@@@@@@@         @@@@@@@@@@@@@X           X@@@@@@@@             ",
"              @@@@@@@@            @@@@@@@@@@@@@@@@@@@@@@@@@@@@@@@@@@@@@@         @@@@@@@@@@@@X           @@@@@@@@@              ",
"              X@@@@@@@@           @@@@@@@@@@@@@@@@@@@@@@@@@@@@@@@@@@@@@         X@@@@@@@@@@@X            @@@@@@@@@              ",
"               @@@@@@@@            @@@@@@@@@@@@@@@@@@@@@@@@@@@@@@@@@@@@         X@@@@@@@@@@@            @@@@@@@@X               ",
"                @@@@@@@@           @@@@@@@@@@@@@@@@@@@@@@@@@@@@@@@@@@@@         X@@@@@@@@@@@           @@@@@@@@X                ",
"                 @@@@@@@            @@@@@@@@@@@@@@@@@@@@@@@@@@@@@@@@@@          @@@@@@@@@@X           X@@@@@@@@                 ",
"                  @@@@@@@           @@@@@@@@@@@@@@@@@@@@@@@@@@@@@@@@@@         X@@@@@@@@@X            @@@@@@@X                  ",
"                   @@@@@@            X@@@@@@@@@@@@@@@@@@@@@@@@@@@@@@@          @@@@@@@@@@            @@@@@@@@                   ",
"                    @@@@@@           @@@@@@@@@@@@@@@@@@@@@@@@@@@@@@@X          @@@@@@@@@            @@@@@@@@                    ",
"                     @@@@@            @@@@@@@@@@@@@@@@@@@@@@@@@@@@@@          @@@@@@@@@@           @@@@@@@X                     ",
"                      X@@@@           X@@@@@@@@@@@@@@@@@@@@@@@@@@@@@          @@@@@@@@X           @@@@@@@@                      ",
"                       X@@@            @@@@@@@@@@@@@@@@@@@@@@@@@@@@          @@@@@@@@@            @@@@@@@                       ",
"                         @@@           @@@@@@@@@@@@@@@@@@@@@@@@@@@           @@@@@@@@            @@@@@X                         ",
"                          @@            @@@@@@@@@@@@@@@@@@@@@@@@@           @@@@@@@@            @@@@@@                          ",
"                           @@           @@@@@@@@@@@@@@@@@@@@@@@@X           @@@@@@@X           @@@@@X                           ",
"                             @           @@@@@@@@@@@@@@@@@@@@@@@           @@@@@@@X           @@@@@                             ",
"                                          @@@@@@@@@@@@@@@@@@@@@           X@@@@@@X            @@XX                              ",
"                                          @@@@@@@@@@@@@@@@@@@X            @@@@@@@            @@@                                ",
"                                           @@@@@@@@@@@@@@@@@@            @@@@@@X            @@                                  ",
"                                           @@@@@@@@@@@@@@@@@            @@@@@@@            @                                    ",
"                                            @@@@@@@@@@@@@@@             @@@@@@X                                                 ",
"                                            @@@@@@@@@@@@@@             @@@@@@X                                                  ",
"                                             @@@@@@@@@@@X             @@@@@@X                                                   ",
"                                              @X@@@@@@X              @@@@@@X                                                    ",
"                                                  @@XX              X@@@@@@                                                     ",
"                                                                   @@X@@                                                        "
};
