/* XPM */
static char *_cadf5cc177547acd352f18e095cabdbjPtAix3eMEwfMXul[] = {
/* columns rows colors chars-per-pixel */
"64 64 175 2 ",
"   c #372B13",
".  c #372D14",
"X  c #382C12",
"o  c #382C14",
"O  c #392D15",
"+  c #3F2F15",
"@  c #3F2F16",
"#  c #3F2F18",
"$  c #3E3016",
"%  c #3F3116",
"&  c #3F3117",
"*  c #3D003E",
"=  c #3F003E",
"-  c #3E003F",
";  c #373737",
":  c #383637",
">  c gray22",
",  c #412F17",
"<  c #403016",
"1  c #403017",
"2  c #413117",
"3  c #473715",
"4  c #473716",
"5  c #493616",
"6  c #4A3717",
"7  c #473916",
"8  c #473817",
"9  c #483816",
"0  c #483817",
"q  c #493917",
"w  c #413118",
"e  c #403019",
"r  c #403218",
"t  c #473618",
"y  c #483719",
"u  c #4A3719",
"i  c #483918",
"p  c #493918",
"a  c #49381A",
"s  c #543D1B",
"d  c #553D1B",
"f  c #543B1C",
"g  c #563B1D",
"h  c #553C1D",
"j  c #543D1D",
"k  c #553C1E",
"l  c #543D1E",
"z  c #563D1E",
"x  c #563D1F",
"c  c #553E1E",
"v  c #5C3F1D",
"b  c #5D3E1F",
"n  c #5C3F1F",
"m  c #40003D",
"M  c #40003F",
"N  c #41003F",
"B  c #5E3F20",
"V  c #5E3F22",
"C  c #5B411E",
"Z  c #5D401E",
"A  c #5E401E",
"S  c #5E411F",
"D  c #5C421F",
"F  c #5B4120",
"G  c #5D4020",
"H  c #5E4121",
"J  c #5D4022",
"K  c #6B4723",
"L  c #6B4923",
"P  c #6C4923",
"I  c #6E4823",
"U  c #6B4924",
"Y  c #6B4926",
"T  c #6C4824",
"R  c #6D4925",
"E  c #6E4824",
"W  c #6D4A24",
"Q  c #6C4826",
"!  c #734B27",
"~  c #744D26",
"^  c #734B28",
"/  c #764B28",
"(  c #734D28",
")  c #744C28",
"_  c #744C29",
"`  c #774C29",
"'  c #3F0040",
"]  c #410040",
"[  c #400041",
"{  c #410041",
"}  c #480147",
"|  c #460048",
" . c #470048",
".. c #470149",
"X. c #480049",
"o. c #490049",
"O. c #48004A",
"+. c #49014A",
"@. c #49014B",
"#. c #4E004E",
"$. c #4F004F",
"%. c #51004F",
"&. c #4D0050",
"*. c #4E0050",
"=. c #4F0051",
"-. c #4E0151",
";. c #4E0052",
":. c #4F0053",
">. c #4E0153",
",. c #4F0252",
"<. c #510051",
"1. c #500052",
"2. c #500152",
"3. c #550056",
"4. c #570056",
"5. c #560057",
"6. c #580056",
"7. c #580057",
"8. c #590057",
"9. c #590157",
"0. c #570058",
"q. c #560059",
"w. c #590158",
"e. c #580059",
"r. c #590059",
"t. c #59005A",
"y. c #6B006E",
"u. c #6A006F",
"i. c #6B006F",
"p. c #6B016F",
"a. c #6C006F",
"s. c #6B0170",
"d. c #6B0071",
"f. c #6B0072",
"g. c #6C0070",
"h. c #6D0070",
"j. c #6D0170",
"k. c #6D0171",
"l. c #6E0071",
"z. c #6C0072",
"x. c #6D0072",
"c. c #484848",
"v. c gray33",
"b. c gray39",
"n. c #636564",
"m. c #656565",
"M. c #646466",
"N. c #814F2C",
"B. c #80502C",
"V. c #840183",
"C. c #860083",
"Z. c #830084",
"A. c #830185",
"S. c #830086",
"D. c #830187",
"F. c #850084",
"G. c #840185",
"H. c #860085",
"J. c #850284",
"K. c #840087",
"L. c #870186",
"P. c #860087",
"I. c #840286",
"U. c #850286",
"Y. c #850188",
"T. c #9B009A",
"R. c #9A009B",
"E. c #9D009A",
"W. c #9B009C",
"Q. c #9B019D",
"!. c #9B009E",
"~. c #9D009C",
"^. c #9C019D",
"/. c #B300B4",
"(. c #B500B4",
/* pixels */
"g.g.g.M M M M - w.g.G.7.f.M M M M - M M g.g.a.g.g.g.7.M M M M - M M M - 7.g.G.G.g.7.7.M M M M M [ M M M M - M - 7.7.7.4.7.7.7.7.",
"G Z.G.g.M M M 7.g.Z.g.g.7.4.M M M M M g.G.W.R U R Z g.7.M - M M M - =.7.g.Z.G.G.G.g.G.g.M M [ M M M M M M 7.7.7.g.G.G.R R R R R ",
"R G G.G.G.g.M 4.g.i.7.g.g.g.7.M - =.7.G.W.R R G G Z G 7.7.=.M [ =.=.7.=.g.G.G.Z.g.G.g.g.7.M M M M [ M M 7.w.7.g.V.G.R L R R R R ",
"G G G G.g.7.w.7.7.7.g.g.7.7.M X.=.=.4.Z.W.P G G.g.g.G g.7.=.=.=.7.7.2.7.g.G.g.G.g.g.7.7.w.=.=.X.=.%.X.=.=.7.7.g.G.R R R R h h 7.",
"G.G 8 g.G.g.7.7.w.7.w.7.=.X.X.=.=.7.w.g.G.G.g.7.g.G.R g.=.4.F G F G.g.7.7.g.G.g.4.7.G G R G Z G h h 0 0 =.=.=.g.G.R R R 1 7.h g.",
"G.G 0 G.G.g.g.7.g.g.G.G.G.G.V.g.g.7.7.7.g.G.g.G.G.g.h 2.4.G R R R G G.g.7.7.g.0 0 G R R R R R G G n 0 G 8 =.=.g.G.g.R G e f.h G.",
"g.G.F g.G.g.G.g.G.G.G.G.R g.g.G.G.g.g.7.4.g.7.G.g.g., 7.G R R h h G G.f.7.1 0 R R ) R R R G h h 1 h e 1 G 0 =.7.g.G.R G 1 G.h g.",
"G.Z.G G.g.g.g.G.G ) G.R G g.0.g.g.g.G.g.7.7.7.4.g.7.i 7.R G d 4.4.h g.7.e h R ) ) ) ) ! R 0 h 0 M f 7.w.G , 0 =.7.G.R G , Z.h w.",
"g.G.G g.7.g.G.G ^ ) R G h g.w.7.7.7.g.g.7.g.7.4.g.g.G g.G G 7.G.g.6 G.g.1 R ) ) B.B.) ) R 0 M 0 7.h i.g.h 7.0 =.=.g.Z h 1 g.h =.",
"7.g.G 7.g.G.G.) ) L G G f g.7.7.g.7.7.w.7.w.g.g.g.g.h 7.G G g.Z.G.@ g.1 R h 0 B.B.) ) U G & 7.1 7.h G.G.h g.0 7.=.7.G h 1 G.h =.",
"7.7., g.g.G.~.) R G G h 0 g.7.g.g.G G G h 0 w.7.7.g.i =.0 4.Z.g.g.e =.1 h R g.N.) R P G h 1 7.7.7.G.G.f h g.0 1 7.=.4.h 1 g.7.=.",
"7.7.1 g.G.G.W.) G G 0 0 8 g.4.g.G R R R R G a.7.7.7.w.=.0 g.G.7.g.1 X.1 h 0 g.B.R R G h f h 1 G.7.G.h h h h 0 1 f.7.=.h 1 =.7.=.",
"7.7.e g.G.T.W.i.G 0 1 g.& 7.g.7.R R G g.G R G.g.w.=.X.X.& =.=.=.=.} X.7.h 0 G.R R G h 7.g.h h e G.G.f 0 0 h 0 1 g.g.7.h @ =.=.X.",
"7.7.1 i.W.G.R R R Z & =.1 =.=.C R G g.f.G.G G.g.#.M M X.=.=.7.=.=.=.7.=.h 0 G.R n h 7.g.G.g.h 1 G R 0 1 1 G.0 1 g.G.7.=.=.=.X. .",
"7.7.7.g.G.R R G g.g.g.g.o  .=.G R G 7.G.g.G G.g.2.X.X.=.7.7.i.G.G.g.=.=.0 8 G.P 7.h g.G.G.G.R F R f 1 g.g.g.i 1 g.G.g.4.=.=.X.} ",
"7.4.7.g.G.R Z g.G.W.~.G.o M =.G R G 7.G.7.h g.7.X.7.0 i 0 w.g.g.g.g.=.X.0 7.G.R G.h 7.0 h R R R h 1 g.G.g.7.g.0 , g.g.=.X. .X.X.",
"7.7.7.a.G.R g.G.E.G.i.g.. [ =.U G.h 7.g.7.0 =.=.=.G R R G G 0 7.g.4.X.X.0 7.Z.R G.h 0 R K R R R R h 1 g.g.7.G.0 t , g.=.X.X.X.X.",
"4.w.7.g.g.R g.W.G.7.7.M o M =.R G.0 7.i.7.1 =.7.R B.B.B.B.R n 7.7.g.X.X.1 g.Z.7.G.h R R U R h h h h 1 g.V.g.f.g.8 1 e =.X.X.#.7.",
"7.w.7.g.g.R g.W.7.g.G.7.o X.=.G.G.i.G.g.7.=.=.G.B.R G n G G R h 4.0.2. .1 g.g.7.7.h R R h h o h o h 1 i.g.7.7.G.g.1 =.- =.=.=.7.",
"7.7.7.7.g.g.G.f.7.G.f.7.X =.7.g.G.G.g.w.=.=.7.G.G g.(.~.G.T.G h 0 & 7.=.1 g.G.7.h h R h 0 o 7.h 7.h o g.7.g.7.G.g.e =. .=.7.7.g.",
"g.g.g.7.7.g.G.7.7.g.g.G.g.7.g.G.g.g.7.=.=.7.G.U /./.~.G.Z.h G.h h 0 7.7.& g.g.7.7.h R h o 7.g.7.g.h o i.7.g.w.g.g.0 =.=.g.g.g.g.",
"R Z.G.g.7.g.g.7.g.7.7.g.G.g.7.7.7.=.=.=.g.G.R ) G.W.Z.R h h @ h 1 1 1 7.0 g.7.7.7.h G.h   a.g.w.7.. 7.4.g.7.=.g.7.0 7.g.G.~ ) R ",
"R R G G.g.7.7.7.4.g.Z.7.7.M M 2.7.7.g.g.G.R ) R R R R G 1 7.g.@ 7.1 1 0 h y 7.7.g.h G.y o w.7.4.g.g.7.g.7.=.=.=.0 h G.G.) ) R R ",
"F G R 0 g.7.7.g.G.G.V.g.7.M M G G e 7.g.G.U ) g.G.R h h 4.g.G.7.1 1 h G R G 7.4.g.g.G.@ g.7.4.7.7.G.g.7.7.=.X.M 0 G R R / ) R P ",
"G h h 0 g.G.g.g.G.G.G.g.=.M h G h 0 7.g.G.R ) i.G.R h 1 7.G.7.e 1 0 0 0 f h h g.f.f.G.1 G.g.g.G.G.f.G.g.X.M =.=.G P ) ) G.G.G.G ",
"7.0.0 1 @ g.g.G.G.G.i.7.M =.R g.4.6 7.g.G.R ) R R h 1 1 g.G.h 0 0 1 1 h h 0 h d , G.g.g.g.G.G.g.g.7.g.M M X.7.a.P ) ~ W.G.g.g.g.",
"7.7.w.0 0 g.7.g.g.g.7.3 R R K 7.a., e g.G.R R i.7.7.i.g.G.G.h 0 1 0 7.7.g.f h 0 1 1 g.G.g.g.G.g.w.=.X.M M X.i.Z.) ) W.W.G.7.g.7.",
"G.G.G.h h 7.G.g.7.7.0 h h G 7.7.w.1 =.g.G.G.R g.7.g.R R R h 1 1 0 h h G.W.h g.h 0 1 @ g.7.7.i.7.=.2.X.X.X.7.G./ R ! ) ) ( R 7.7.",
"7.g.g.Z G 4.g.7.=.#.0 g.g.G g.g.G.g.=.7.g.G.R G.~.W.W.W.W.h 1 g.i.0 h G.G.h g.d h 0 1 7.=.=.7.=.G G G 7.7.g.V.R ) G G G ( / R g.",
"7.g.G.R G G.7.=.=.=.=.7.g.0 G.G.g.7. .=.4.G.G.W.W.W.G.G.G.h 1 7.W.G.1 4.g.h g.h h 0 1 7.=.=.=.G G Z 7.7.i.G.W.R G G./.(.G R R Z.",
"g.G.g.G G g.7.g.7.7.7.g.g., 0 0 6 1 X. .7.Z.G.W.W.G.G.g.G h 1 g.V.G.1 7.7.h 7.d h 0 , g.7.0 =.G G G.G.G.G.G.W.U G./.G.G.W.W.R G ",
"g.G.g.h d G.g.G.g.7.g.G.W.W.G.G.g.d 1 1 a.G.W.Z.G R R h & h g.W.g.g.1 7.g.g.g.h h 0 1 f.7.=.=.G G.G.G.f.f.G.W.R G./.i.g.W.W.G G ",
"7.G.g.0 8 G.7.g.7.7.G././.W.G G F G.0 2.G.G.G.G R Z h 0 h g.W.G.f.G.7.g.G.G.G.h h 0 1 g.7.X.2.0 g.G.G.g.7.G.G.P G.W.g.7.G.G.h h ",
"7.g.Z.f h g.a.g.7.g.W./.W.G G G Z G g.w.G.Z.G.R G 1 X.0 h 0 ~.G.7.g.g.i.G.G.G.h h 0 e g.7.X.=.0 g.g.g.7.g.G.G.R G.W.g.w.g.0 3 3 ",
"7.g.G.R G g.G.G.7.G.W.W.Z Z 0 0 g.0 G.7.V.G.g.R 0 =.7.4.0 y G.g.X.7.g.G.G.f.4.h @ 8 @ g.w.} =.0 7.w.g.7.7.g.G.G g.G.g.=.g.0 6 0 ",
"G.7.G.F 0 g.Z.g.7.G.G.~.g.G 0 y G.0 g.7.G.G.7.t X.7.g.7.0 1 g.7.X.7.g.G.G.g.7.h e 7.g.7.=.=.=.0 =.7.7.=.4.7.g.G g.G.g.7.=.=.h h ",
"7.7.G.0 0 g.g.7.w.g.G.G.g.0 0 0 g.i 7.7.g.G.g.0 X.g.g.w.1 1 2.X.7.7.7.g.G.7.4.d 1 7.g.7.=.7.7.0 =.=.=.=.2.=.4.h 7.g.g.g.7.7.G n ",
"4.4.g.0 g.7.7.=.=.g.G.G.G.0 0 i 7.y X.=.7.g.g.F M 7.7.X.& 1 X.X.f.7.7.G.7.7.i.g.1 g.G.g.g.g.g.0 =.=.=.7.7.=.2.h M 7.g.i.g.g.R R ",
"7.7.G.g.7.=.=.=.=.7.g.g.G.g.i 7.=.0 X.X.=.7.7.0 - g.7.X.1 & X.7.7.X.7.7.g.g.7.g.1 7.a.g.G.G.G.0 =.4.g.g.g.g.7.h =.M =.7.4.=.R R ",
"7.7.g.7.7.7.=.2.=.#.4.g.g.7.8 7.=.=.2.=.} =.=.1 X.7.7.G.g.1 M X. .7.7.i.G.G.7.g.7.e 7.g.G.G.g.0 7.g.G.G.G.G.g.7.w.X.M - M M G G ",
"7.7.w.a.g.g.g.7.g.w.=.7.f.G.G.G.G.g.=.7.=.=.7.1 X.X.X.g.7.o [ X.X.w.g.G.G.g.7.7.7.1 7.G.g.7.7.y 8 G G G.G.G.G.i.f.7.X.X.M M h 0 ",
"7.7.g.G.R R G.g.G.g.7.g.G.Z.G.G.G.G.G.7.g.7.7.o X.X.}  .X.o M X.w.7.g.G.g.7.7.g.7.#.7.=.7.G.i G G R U G G G.g.g.G.g.7.X. .- 0 0 ",
"=.7.g.R G G h g.g.7.a.g.G.V.R R h h g.g.G.g.=.o =.X.X.X.X.1 M 7.g.g.7.7.=.=.=.0.=.X.=.7.7.g.Z.B R G d 7.h g.G.g.G.Z.g.7.X.X.1 1 ",
"=.7.G.G g.g.h 7.7.g.Z.G.G.R R R h h 7.4.g.7.X.1 =.=.=.=.=.0 =.7.7.7.7.g.7.7.=.=. .} 2.7.g.G.W.R R h 3 M 0 g.Z.G.G.g.G.g.7.=.1 o ",
"=.w.G.h g.V.h G.g.G.G.R R R F G h 0 7.7.7.=.- 0 w.f h h d Z Z.G.7.7.7.f.g.a.7.7.=.=.=.7.g.G.W.h G.0 w.M 7.4.g.G.g.7.g.7.g.7.o M ",
"=.7.g.h g.7.h g.g.G.V.G G.R 7.7.h 1 7.g.7.=.M 3 h R R G G R W.W.G.7.7.g.G.G.g.g.7.w.7.g.G.R W.h G.0 M M 7.g.G.G.g.7.7.g.V.a.o M ",
"=.7.7.8 g.G.G.g.G.G.g.h 7.G.=.7.4.1 g.G.g.#.X.h P B.) P G R G./.W.R 0 g.G.G.g.G.g.7.f.G.R R G.0 g.7.M 7.7.0 G W.G.g.a.g.G.g.X M ",
"X.=.7.y g.G.G.g.G.G.g.4.G.7.=.g.G.W.1 G.g.=.=.G B.) ) P K R a.W.G.Z R 3 G.g.G.g.g.7.g.R U U G.6 g.4.7.0 8 G R ~ V.g.G.g.g.g.w.7.",
"=.X.=.1 f.g.g.7.g.G.g.7.7.=.g.g.W.g.1 g.7.7.7.R ) R R G R R U G.W.Z.G Z g.G.g.G.g.g.R R R P R R 4.0 0 n F R ) G f.g.G.g.g.V.g.@ ",
"=.X.=.1 #.7.7.7.7.g.7.w.7.g.4.g.g.1 g.G.f.7.R R G h R h B R R R G.W.G.Z 0 g.g.g.g.G.R R G G G G P G.G.) ) ) B 0 7.7.g.g.g.G.g.1 ",
"X.M X.o  .2.=.=.7.7.g.g.=.7.=.X.M , 7.g.7.7.Y.R h G G 0 h G G G g.G.G.G 0 =.7.4.g.P R Z G X.=.=.7.g.g.G 6 7.G 0 7.g.G.V.f.G.g.1 ",
"M M M o X.M X.X.=.=.7.7.7.g.g.X. .1 =.4.0 R R R R G 0 G h h 0 0 G R G.G 0 X.=.7.7.R G g.h =.w.7.g.G.G.G 0 g.G 0 g.G.G.g.7.g.7.7.",
"X.M - M - X.=.=.7.0.7.7.7.7.7.2.=.1 o 0 R h h 0 G 0 G G 3 i 0 0 0 G G G G 0 X.=.7.h G.g.0 7.0 G G 0 1 G G.G.a.0 G.V.h G i 7.7.1 ",
"=.- [ o X.=.7.7.g.i.G.G.G.G.G.g.7.& 0 R h h 1 X 0 0 G 0 i X.7.0.g.g.h h G G 0 & 4.0 g.G.0 g.G h h 0 1 G G.g.a.0 g.h G G G 0 7.1 ",
"X.' X.X.=.7.g.G.V.G.R R R R R G.f.7.0 Z h 1 X.o 1 X.0 0 1 7.G.g.g.7.6 0 0 0 h 0 X.1 7.g.0 G.g.0 X.0 , G g.7.7.1 G.g.g.h h 0 =.=.",
"X.X.X.X.=.g.G.W.W.G R h h h h R G.4.0 G 1 X.X.o 1 X.0 0 1 f.G.G.G.G.e e o o h 0 #.1 X.4.1 G.g.0 X.1 @ 7.7.i.7.1 g.7.g.8 0 8 =.=.",
"X.X.X.X.7.g.G.W.W.P 7.g.g.i.h h g.7.0 Z 1 X.X.X.1 X.X.7.1 4.g.G.Z.G.o 1 o  .i 1 7.w.=.X.1 g.g.1 X.0 0 7.7.G.7.1 7.7.7.0 0 0 =.=.",
"=.X. .=.7.g.G.W.7.h g.G.g.G.g.h g.7.X G.Z.7.w.G.1 w.G.4.e 7.g.G.g.g.o o  .=., o =.7.=.X.1 =.=.1 =.h h @ 7.7.7.1 7.g.7.7.G h h 7.",
"=.X.X.2.7.g.G.f h 1 h h G.g.G.0 g.g.o 7.G.G.7.7.1 w.7.7.1 g.7.g.7.X.X.o =.g.1 o X.i.X.=.e 7.=.=.7.G g.G 1 7.7.& g.7.7.n B.R R h ",
"=.X.X.=.d R R P g.G.i.g.g.g.g.0 g.G.o 7.4.4.7.7.1 1 1 1 @ g.g.7.7.7. .o g.4.1    .=.=.7.1 g.g.7.G.f G.f.1 1 7.1 7.7.G B.R G F G.",
"1 =.=.g.R R n B R g.g.G.G.1 @ 1 e 1 1 7.7.G.7.1 0 0 0 0 0 0 1 1 1 , 1 o 1 7.e X X.f.4.g.G.G.G.f.7.@ 1 1 1 1 1 e 1 1 R B.G g.e 1 ",
"@ 1 1 G.R =.g.G.h G.7.g.1 0 8 0 8 0 0 0 0 1 1 1 G G.Z G G G h h h 0 0 8 1 1 1 o g.G.g.g.G.G.G.i y 0 h h h f G G G R B.G 0 G.g.1 ",
"& 1 , 1 G g.G.7.0 1 1 1 0 G G U R B G G 6 0 0 0 0 G R ) B.) R R G G G G B h h 0 0 0 i 1 @ @ 1 0 0 i h G R R R R R R G 6 & 1 1 & ",
"b.c.> 1 1 1 1 # 1 1 1 & 1 & 1 1 1 , > c.m.m.v.; 1 1 1 1 1 1 1 1 e 1 1 1 , 1 e & 1 1 & : c.v.v.c.> 1 1 1 1 1 1 1 1 1 @ e 1 > c.n."
};
