/* XPM */
static char *_b189ac1f7614be89ee35ce707b465e1asMuciDhaDgyPPln[] = {
/* columns rows colors chars-per-pixel */
"64 64 188 2 ",
"   c gray12",
".  c #3F0000",
"X  c #3E0100",
"o  c #201E1F",
"O  c #20201E",
"+  c #211F20",
"@  c #1F2120",
"#  c #202020",
"$  c gray13",
"%  c #202022",
"&  c #2B2B29",
"*  c gray17",
"=  c #2A2C2B",
"-  c #2C2C2A",
";  c #2D2D2B",
":  c #2B2B2D",
">  c #2D2B2C",
",  c #2B2D2C",
"<  c #2B2C2E",
"1  c #2C2C2C",
"2  c #2D2D2D",
"3  c #2E2C2D",
"4  c #2C2C2E",
"5  c #2D2D2F",
"6  c #2F2F2F",
"7  c gray19",
"8  c gray20",
"9  c #343434",
"0  c #373735",
"q  c #373737",
"w  c #363837",
"e  c #383836",
"r  c #373739",
"t  c #393738",
"y  c #373938",
"u  c #37383A",
"i  c gray22",
"p  c #393939",
"a  c #383A39",
"s  c #38383A",
"d  c #3F3F3F",
"f  c #400000",
"g  c #410000",
"h  c #400001",
"j  c #410001",
"k  c #410101",
"l  c #4A0000",
"z  c #4B0000",
"x  c #4B0100",
"c  c #4A0001",
"v  c #4C0000",
"b  c #4C0100",
"n  c #4D0101",
"m  c #4E0000",
"M  c #4C0002",
"N  c #550000",
"B  c #560000",
"V  c #570000",
"C  c #560100",
"Z  c #580000",
"A  c #590000",
"S  c #590100",
"D  c #580001",
"F  c #5A0000",
"G  c #620000",
"H  c #630000",
"J  c #630100",
"K  c #630001",
"L  c #630102",
"P  c #640000",
"I  c #650000",
"U  c #650101",
"Y  c #660000",
"T  c #640002",
"R  c #6D0000",
"E  c #6E0000",
"W  c #6F0000",
"Q  c #6F0100",
"!  c #6E0001",
"~  c #700000",
"^  c #710000",
"/  c #710100",
"(  c #700001",
")  c #710001",
"_  c #710002",
"`  c #7B0000",
"'  c #7B0100",
"]  c #7B0001",
"[  c #7C0000",
"{  c #7D0000",
"}  c #7D0100",
"|  c #7D0101",
" . c #7C0201",
".. c #7C0002",
"X. c #7D0002",
"o. c #3E403D",
"O. c #3F4140",
"+. c gray25",
"@. c #404042",
"#. c gray28",
"$. c #484846",
"%. c #494947",
"&. c #494748",
"*. c #474948",
"=. c #484848",
"-. c #494949",
";. c #48484A",
":. c #4A4C4B",
">. c #4C4C4C",
",. c #535353",
"<. c #535552",
"1. c #545452",
"2. c #555354",
"3. c #535554",
"4. c #535456",
"5. c gray33",
"6. c #555555",
"7. c #565455",
"8. c #545655",
"9. c #545456",
"0. c #555557",
"q. c gray36",
"w. c #5C5C5E",
"e. c #656366",
"r. c #636564",
"t. c #646464",
"y. c #646466",
"u. c #870000",
"i. c #870100",
"p. c #870001",
"a. c #880000",
"s. c #890000",
"d. c #880100",
"f. c #890101",
"g. c #8A0000",
"h. c #8B0101",
"j. c #880002",
"k. c #890103",
"l. c #8A0002",
"z. c #960000",
"x. c #970000",
"c. c #980000",
"v. c #990000",
"b. c #990100",
"n. c #980001",
"m. c #A30000",
"M. c #A30100",
"N. c #A30001",
"B. c #A40000",
"V. c #A50000",
"C. c #A50100",
"Z. c #A40001",
"A. c #A50001",
"S. c #A60000",
"D. c #A40200",
"F. c #A50102",
"G. c #B00000",
"H. c #B00100",
"J. c #B00002",
"K. c #B90000",
"L. c #BB0000",
"P. c #BA0100",
"I. c #BC0000",
"U. c #BD0000",
"Y. c #BD0100",
"T. c #BC0001",
"R. c #BE0000",
"E. c #C70000",
"W. c #C70100",
"Q. c #C80000",
"!. c #C80100",
"~. c #C90101",
"^. c #CA0000",
"/. c #C90200",
"(. c #D20000",
"). c #D30000",
"_. c #D40000",
"`. c #D50000",
"'. c #D50100",
"]. c #D40001",
"[. c #D60000",
"{. c #E00000",
"}. c #E10000",
"|. c #EB0000",
" X c #EC0000",
".X c #EC0100",
"XX c #ED0101",
"oX c #EE0000",
/* pixels */
"i i i e i i i i y i i i i i e i i i i i t i i i y q i i i i i i i i i i i y y i i i i i i i i i i i i i i i i q i i i i i i i y ",
"5.i 5.;.;.;.;.;.5.;.;.;.;.;.;.5.;.i ;.;.;.;.;.;.;.5.5.5.5.5.5.*.;.;.;.;.&.;.;.;.,.5.5.5.5.4.5.;.;.;.;.i i i ;.;.5.4.;.;.;.;.;.i ",
"i  X X_._._._._._._._._.B.;.;.5. X X_._._.)._._._._._._._.)._._._._._._.B.;.i 5. X X X X{.{.{.{.{.{._._._._._.Q.Q.Q.Q.I.I.I.B.;.",
";. XQ.G.G._.a.B._.a.Q.B.P 1 ;.5. XI.i.I.a.I.i.I.[ I.c.I.c.I.[ I.[ I.Q.B.^ , ;.i _.B.Q.G.Q.G.G.Q.^ Q.[ Q.G.Q.a.G.B.[ Q.c.Q.B.[ 1 ",
";._.B.[ B.a.B.c.^ B.a.^ P 1 ;.5._.I.a.a.B.a.^ B.B.^ c.B.B.^ c.B.^ B.c.W Z 1 ;.5._.B.B.[ P B.a.^ i.B.[ a.B.B.a.B.[ a.B.B B.^ P 1 ",
";._.[ B.B.^ c.B.B.^ B.Z f 1 ;.5._.a.I.B.a.B.^ B.a.B.^ B.^ a.[ B.^ c.[ ^ Z > ;.;._.^ B.P a.B.H M.^ B.[ B.a.B.P B.c.[ B.[ B.^ v 1 ",
";.Q.B.` a.z.[ B.^ a.B.^ f 1 ;.5.I.I.a.B.a.a.c.B.W a.^ B.a.^ c.[ a.W B.^ f 1 i ;.I.^ B.[ B.i.P B.^ ^ B.B.^ M.a.B.B.[ B.Z M.a.v * ",
";.I.[ B.B.^ B.c.^ c.^ B f 1 ;.;.I.Q.a.B.^ B.^ B.^ B.^ c.a.^ [ B.^ c.[ ^ Z * t ;.I.z.M.H a.B.[ a.^ a.[ B.a.B.P B.[ a.B.[ B.^ f 1 ",
";.I.B.^ a.Z ^ [ Z ^ a.^ f 1 i 5.c.c.^ ^ v a.^ ^ a.^ c ^ a.^ a.^ v a.^ ^ f 1 i ;.I.^ ^ B ^ ^ v a.v ^ Z a.c ^ v a.P v ^ a.^ a.f , ",
";.[ H P P f f f f f f f f 1 i ;.[ P P Z Z Z B Z Z Z Z Z f . f f f f f . f 1 i ;.a.P P P P P P P P P P Z Z Z Z Z Z Z Z Z f f f 1 ",
";.$.- 1 1 , 1 1 1 1 @ o # 1 i 5.;.1 1 1 1 1 # # O # # 1 * # # @   1 1 1 = 1 ;.5.i 1 1 1 1 - - 1 1 1 * 1 # # # # # 1 1 1 * 1 1 - ",
"5.i i i i ;.;.;.;.i i i i i ;.i ;.;.;.;.;.$.;.i y i 5.;.&.;.i i ;.;.*.;.;.;.4.i ;.5.5.,.4.q.t.t.q.5.5.;.;.+.i +.1.i 5.;.$.;.4.i ",
" X)._._.I.I.I.I.I.I.I.I.I.I.I.M.;.5.;. X X_._._._._._.Q.Q.Q.Q.Q.Q.Q.I.P.I.I.I.I.I.I.P.I.I.I.I.I.I.I.I.I.B.;.+.5. X X_._._._._._.",
"G.a.a.G.c.[ G.[ c.a.G.P G.a.B.f i ;.5. X^ G.E.[ P.P a.I.a.a.Q.c.B.a.[ a.B.i.B.a.B.[ Q.P E.a.c.I.Q.c.Q.B.f i &.i  XQ.[ G.a.G.a.G.",
"a.B.a.B.[ a.a.P B.a.P a.B.B.W f , ;.;._.G.^ B.` B.B.a.B.P B.W P a.B.[ B.` B.P M.B.a.P B.a.B.^ a.B.^ B.^ f i ;.5.E.G.` B.a.[ B.c.",
"^ M.M.a.c.P B.[ i.a.c.P B.a.^ f 1 e ;.).^ B.a.c.a.a.P a.a.^ B.a.P B.a.[ P ` a.a.B.Z a.[ B.^ B.^ B.B.^ ^ f , O.;.Q.[ B.B.B.` B.[ ",
"B.a.a.B.i.` [ a.[ B.c.H B.H ^ . 1 i ;._.^ B.B.[ B.P a.B.P ^ M.P i.B.[ a.[ B.P B.a.Z B.P B.^ a.^ B.^ B.^ f , i ;.Q.G.[ B.[ B.c.[ ",
"W B.P B.^ a.[ c.P B.P a.B.B.^ f 1 &.5._.G.Z B.[ B.a.P a.Z i.^ P B.a.[ B [ B.P a.B a.B.P i.B.^ a.B.^ B.^ f # i ;.G.[ B.B.Z B.[ a.",
"^ G.P ^ v [ ^ c.^ c.^ Z c.W W . , ;.5.G.B.^ a.Z ^ c.^ a.P ^ a.Z ^ c.^ c.P i.^ a.a.Z c.^ ^ a.v ^ c.W a.^ f   +.4.G.B.[ ^ Z ^ c.^ ",
"f v v c v v v v v v v v v f f f i ;.5.B.H P P P P P P P H P P P P Z Z B B Z Z Z Z Z Z Z Z Z Z Z Z Z Z f f # ;.e B.P f H f f P f ",
"* , 1 @ 1 1 1 # # # 1 1 1 # # 1 i ;.e *.i 8 1 , 1 * 1 1 q q i i q 1 1 1 # # # # # 1 1 1 # # # # 1 1 1 1 - i ;.5.$.1 1 1 , 1 1 1 ",
"5.5.;.i i ;.5.t 5.t ;.;.i i e i ;.*.5.;.;.;.+.i +.t d i +.;.;.;.5.i 5.;.+.i i q +.+.;.;.4.+.i i +.;.;.;.5.*.5.i 5.+.i +.2.;.;.$.",
"5. X X_._._.)._._._.I.P.P.I.I.I.I.I.I.I.I.I.I.I.I.I.I.B.;.5.5. X X_._.)._._._._._._._.I.I.I.I.I.I.I.I.I.I.I.I.I.I.I.P.I.I.P.B.;.",
"5.|.a.G.I.` I.[ I.[ G.a.G.i.G.Q.a.G.a.G.a.I.G.H G.E.^ f i ;.4. XI.^ _.B.G.a.B.G.a.G.c.G.[ P B.a.^ a.B.[ a.B.c.a.B.[ a.B.Z B.f , ",
"i  XG.a.B.c.B.` W a.B.B.a.c.a.B.a.P B.^ B.a.P a.B.W G.f 1 $.q._.I.c.B.P B.P a.W c.a.P B.P a.B.P B.^ B.[ B.a.B.P B.c.[ B.[ ^ . 1 ",
";.I.H M.B.W a.Z B.P M.W B.a.c.B.P a.B.^ a.B.a.P [ B.^ f 1 5.t._.I.[ B.[ B.P B.^ c.B.[ B.[ B.a.P B.^ ^ B.c.^ c.a.B.B.[ B.Z ^ f 1 ",
";.I.G.a.B.v B.Z ^ a.B.a.^ [ B.[ a.H [ B.P B.a.P B.^ Z f 1 5.q.).^ M.^ c.a.P a.c.^ B.P a.P a.B.[ a.^ a.[ B.a.B.H B.[ a.B.[ ^ f 1 ",
"5.I.W P B.c i.[ B.P B.Z B.P B.a.P a.B.a.P B.P a.[ [ G.f 1 $.5._.Q.W B.^ B.a.B.i.W B.P B.Z ^ ^ v M.v B.B B.v B.M.a.P v ^ a.^ f 1 ",
";.Q.B.H ^ ^ ^ Z ^ v ^ ^ a.P a.^ ^ a.^ ^ P ^ c.^ c.^ ^ . 1 i 4.Q.B.^ c.^ a.Z ^ ^ ^ ^ P a.W a.v B.Z ^ B.v ^ i.v B.Z B.v B.^ ^ f 1 ",
";.B.z.P P P H P P P P P P P P P P v v v v v v v v v f f 1 i 5.M.P P P P P P P H P P P P P P Z Z Z Z Z Z Z Z Z Z Z Z f Z [ Z f 1 ",
";.;.i 1 1 1 1 1 1 1 - 1 1 1 1 1 1 1 * 1 i y i 1 * 1 1 1 1 ;.;.#.1 1 1 1 1 1 1 1 # # # # # 1 i i i 1 # #   1 1 1 1 1 1 1 1 1 1 1 ",
"5.5.5.5.4.;.&.i ;.i i i ;.5.t.e.5.5.5.;.;.;.o.+.i y +.i i +.5.;.;.;.5.i 5.;.5.;.O.i +.i +.;.2.5.;.;.+.i +.;.&.;.5.q 5.;.;.;.5.w ",
"I.I.I.I.I.I.I.I.I.I.B.;.y 5._._._._._._.)._.I.I.I.I.I.I.I.I.I.I.I.I.I.I.I.P.I.B.;.5.5.E. X_._._._._._.)._._.I.I.I.I.I.I.I.I.I.I.",
"M.G.B.G.c.Q.G.G.Q.B.f i #.i ).B.H B.^ B.B.P M.a.B.B.W B.a.P B.B.P B.B.^ B.[ B.f i ;.5._.B.[ M.^ B.B.H B.[ a.[ M.^ B.a.B.[ B.^ B.",
"B.[ a.B.c.B.[ B.i.^ f 1 ;.5.).P B.[ a.B.[ B.c.^ B.a.a.^ a.a.B.a.P M.^ a.B.P B.f i 5.5._.B.Z B.^ B.a.P B.a.B.[ i.a.c.^ c.[ c.a.^ ",
"a.[ B.c.[ B.[ c.B.^ f 1 ;.w _.P B.M.[ c.B.^ M.^ B.i.M.Z B.v a.a.B.a.W c.M.` B.. q 5.t._.B.[ B.^ B.a.B.a.B.B.[ B.^ c.a.B.c.[ B.^ ",
"B.a.[ B.c.M.c.` a.^ f i ;.5._.c.P B.[ B.[ Z c.a.a.a.^ a.B.P B.a.H a.c.^ a.B.[ f i 5.t.).[ B.B.W B.P B.B.[ ` B.[ B.a.c.c.a.[ ^ a.",
"B.a.[ B.[ B.[ c.B.^ f i ;.;._.H B.[ Z c.B.^ a.a.B.a.B.^ i.v H c.H B.c.^ B.[ M.. i ;.5.Q.B.[ B.B.^ B.a.a.[ B.` B.^ c.a.B.[ a.B.W ",
"^ ^ a.c.^ ^ c.^ ^ ^ . i ;.;.c.H B.B.Z B.[ ^ B.^ B.P B.Z a.P B.a.P c.W c.B.P [ f 1 ;.5.Q.B.Z B.^ B.B.a.B.a.M.[ M.^ c.^ c.[ B.B.W ",
"f f v v v v v v v f f 1 ;.;.B.P P P P P P P P P Z Z Z Z B Z Z Z Z Z Z Z Z B f f 1 ;.*.B.P P P P P P H P H P P P P P P Z Z Z Z f ",
"1 - 1 1 1 1 * 1 1 , 1 , ;.5.;.1 O # # # 1 1 i i i 1 @ # # # # 1 1 1 1 1 - 1 1 1 t ;.;.;.1 1 1 1 y i ;.q 1 1 # # @ 1 * 1 1 , 1 * ",
"1.#.5.i ;.i i ;.;.i i i q ;.;.i i i ;.;.;.;.;.5.5.;.;.q i i 5.;.;.&.5.i $.i ;.i ;.$.2.;.5.q 5.;.5.q.t.5.:.;.;.i 5.;.5.;.<.i 5.i ",
"i  X_._._._._._._.I.I.I.I.I.I.I.I.I.I.I.I.I.I.I.I.I.I.I.I.I.I.B.i 5.t  X X_._._._._._._._.I.P.I.I.I.I.P.I.I.I.I.I.P.I.P.I.I.M.;.",
"5.).B.a.a.B.H B.B.[ c.B.[ B.^ a.B.P M.[ B.a.B.P B.P B.B.[ ^ B.f i ;.5. XB.B.P B.P B.Z B.^ B.Z B.a.Z c.a.^ B.a.[ B.[ c.W a.B.f 1 ",
";._.B.P B.a.P B.a.c.[ B.P a.Z B.c.P B.Z a.c.a.P B.[ B.[ B.^ c.f 1 ;.;._.a.B.P a.P [ Z a.Z c.[ B.Z B.P B.^ a.^ B.a.[ c.B.P a.f 1 ",
";._.a.P B.P a.^ P B.H M.a.` a.M.P c.a.a.Z [ B.v c.Z a.P a.a.^ . 1 i ;._.a.B.P P a.B.[ Z B.[ Z c.B.Z M.^ ^ B.^ B.[ B.^ i.P B.f 1 ",
"i _.B.a.B.a.P B.a.[ c.B.[ B.Z a.B.P B.Z a.B.Z c.B.[ B.B.B.^ [ f 1 i ;._.M.P B.a.P B.Z B.^ c.[ [ Z i.P B.[ a.z.a.c.[ ^ B.a.B.f 1 ",
"5._.B.P a.B.P B.P B.P B.P B.W B.P P B.Z a.[ B.[ a.P c.H a.^ B.f # i 5._.B.P H B.P [ B B.Z B.B c.Z B.P a.^ B.^ [ B.[ c.a.P ^ f 1 ",
"y Q.B.P B.P i.^ a.z.[ B.a.a.a.B.c.P a.[ Z P B.v B.^ c.[ B.^ B.. # i 5.Q.^ B.P a.P B.Z ` B.[ B c.^ a.P B.^ B.^ B.[ c.^ B.P B.f 1 ",
"5.B.P P P P H P H P P v v v v v v v v v v v v v v v v v v v v f 1 ;.5.B.P P P P H P P P P B Z Z Z Z v v v c v c v v v v v f f 1 ",
"r ;.> 1 - 1 1 1 1 1 1 = i q i 1 # # # # 1 1 1 + # # @ 1 1 +   1 1 ;.i *.1 1 1 1 1 1 # @ # 1 q i q 1 + 1 1 1 1 # # O 1 1 , 1 1 * ",
"5.i 5.i 5.&.5.;.$.;.$.5.t.r.5.;.5.i 5.;.5.;.+.i i i +.;.5.;.;.e &.;.5.i 5.;.;.;.;.;.;.;.*.>.5.5.5.>.;.;.;.;.i 1 # # 8 i ;.;.5.;.",
"_._._._.).I.I.I.I.I.I.I.P.I.I.I.I.B.#.5.;. X X_._._._._.)._._.I.I.I.I.I.I.I.I.I.I.I.I.I.I.I.B.;.i 5. X_._._._._.I.I.P.I.I.I.I.I.",
"` B.Z B.B.P z.P B.[ Q.[ B.P B.` B.f 1 ;.;._.M.B.B.B.H B.c B.[ B.H M.P B.c.B.P B.P B.Z B.^ P f i ;.5._.B.P a.B.B B.^ B.^ B.P B.^ ",
"B.[ [ B.[ B.P c.[ P B.Z [ P a.H a.f 1 ;.;._.[ B.^ B.P ^ v [ c.[ B.a.P a.c.H [ a.^ a.Z B.P B.f q #.5._.H B.Z B.^ M.W a.B.^ B.a.v ",
"B.[ Z [ B.P c.P [ B.[ Z B.a.P c.[ f 1 $.+._.[ [ ^ B.P [ [ B.Z B.v B.B.P B.P B.P a.Z a.a.P ^ f 1 ;.5._.P B.^ ^ B.B.a.^ a.^ P ^ a.",
"[ c.Z c.P H B.H B.[ B.Z [ ^ P B.P f 1 ;.+._.B.c W B.P B.v M.[ c.P B.P a.` P B.P B.a.Z ^ c.P f 1 &.5._.M.P Z B.a.^ ^ B.^ B.H ^ B.",
"H B.[ B.P B.P a.B.P B.` Z a.B.[ a.f - ;.+._.v B.B.P B.` W a.B [ v B.P B.P [ [ P a.^ Z a.^ P f 1 ;.;._.P B.a.B.^ B.a.^ ^ Z B.^ B.",
"P B.[ [ P c.c.P c.P [ B B.P B.H c.f 1 ;.;._.v B.W B.H [ [ a.v c.P a.v B.[ P B.a.P B.Z B.Z a.f 1 i $._.P B.B ^ Z B.^ B.^ Z P B.v ",
"[ c.Z B.P P a.P [ [ B.Z B.P ^ a.[ f 1 ;.5.Q.B.v ^ B.P B.c a.P B.P B.^ P B.P [ B.P a.^ a.P a.f 1 i ;.Q.P P Z B.Z B.^ M.^ B.P B.^ ",
"v v v v v v v v v v v v c v v v f f * ;.;.B.f f . f f v v v v v v v v c v v c v v v v v v f f # ;.4.M.. f c v c v v v v v c v v ",
"1 1 1 1 1 1 1 , 1 1 1 1 1 1 1 - - 1 1 ;.,.*.i q q 1 1 1 1 1 1 1 1 1 1 1 1 1 1 + # # # # 1 # # # y ;.;., 1 1 : , 1 # # # + # 1 1 ",
"i 5.i 5.i t i ;.;.;.;.;.5.5.e ;.;.;.;.5.5.5.2.5.;.;.;.5.;.;.;.5.#.;.y ;.;.$.+.i i +.i i +.$.+.i +.5.;.#.i 5.;.;.;.$.+.i +.;.;.;.",
"5.5.2.5.,.5.5.5.5.5.5.5.2.5.5.5.5.5.5.5.5.5.5.5.5.5.5.5.5.5.5.5.5.5.5.5.5.5.5.4.2.5.5.5.5.5.5.4.5.5.5.5.5.2.5.5.5.5.5.5.5.4.5.,."
};
