/* XPM */
static char *_61177fe7dbf42f1cdf5a071edcf3d4b8QiP0TchTayiTtvi[] = {
/* columns rows colors chars-per-pixel */
"64 64 116 2 ",
"   c #271F0C",
".  c #271E0D",
"X  c #2A1F0D",
"o  c #281F0E",
"O  c #27200D",
"+  c #27200E",
"@  c #28200B",
"#  c #28200D",
"$  c #29210E",
"%  c #372D14",
"&  c #3A2B14",
"*  c #382C14",
"=  c #382C16",
"-  c #3F2F16",
";  c #3F3117",
":  c #412F17",
">  c #412F19",
",  c #403016",
"<  c #403017",
"1  c #473715",
"2  c #463716",
"3  c #473716",
"4  c #493616",
"5  c #4A3717",
"6  c #473916",
"7  c #473817",
"8  c #483816",
"9  c #483817",
"0  c #413118",
"q  c #403019",
"w  c #473618",
"e  c #483719",
"r  c #4A3719",
"t  c #473819",
"y  c #483918",
"u  c #493918",
"i  c #49381A",
"p  c #48391A",
"a  c #543C1A",
"s  c #543D1B",
"d  c #553D1B",
"f  c #563C1B",
"g  c #553A1C",
"h  c #543B1C",
"j  c #563B1D",
"k  c #533C1C",
"l  c #553C1D",
"z  c #543D1D",
"x  c #563E1C",
"c  c #553C1E",
"v  c #543D1E",
"b  c #573C1E",
"n  c #563D1E",
"m  c #563D1F",
"M  c #553E1E",
"N  c #5C3F1D",
"B  c #5C3F1F",
"V  c #5C3F21",
"C  c #5E3F20",
"Z  c #5D401E",
"A  c #5B4120",
"S  c #5B4022",
"D  c #5D4020",
"F  c #5E4121",
"G  c #5D4022",
"H  c #5E4123",
"J  c #6B4723",
"K  c #6B4725",
"L  c #6B4822",
"P  c #6B4923",
"I  c #6C4923",
"U  c #6B4924",
"Y  c #6B4926",
"T  c #6C4824",
"R  c #6D4925",
"E  c #6E4824",
"W  c #6F4925",
"Q  c #6D4A24",
"!  c #6C4A25",
"~  c #6C4826",
"^  c #6D4927",
"/  c #734B27",
"(  c #754B25",
")  c #754A27",
"_  c #734C25",
"`  c #734D26",
"'  c #744D26",
"]  c #764C26",
"[  c #744E27",
"{  c #754E27",
"}  c #734B28",
"|  c #764B28",
" . c #764B29",
".. c #734D28",
"X. c #734D29",
"o. c #744C28",
"O. c #744C29",
"+. c #754D29",
"@. c #774C29",
"#. c #744E29",
"$. c #8F5B33",
"%. c #8F5C31",
"&. c #8D5C33",
"*. c #8E5D32",
"=. c #8E5D34",
"-. c #8F5E35",
";. c #905B33",
":. c #915C32",
">. c #905D32",
",. c #915E33",
"<. c #915B35",
"1. c #905C34",
"2. c #915C34",
"3. c #905C35",
"4. c #915D35",
"5. c #925D35",
/* pixels */
"< < < < < < < - : < < - < - < : < < ; 0 < < : < < < < < < < < < : < < < < < < 0 ; 0 < < < > < - < < < < < < < < < < < 0 < < < < ",
"T T T T J T T T T T T T T T T T I T T T T T T T T T T T T T T I T T T U T T T T J T T T T T I T T T T T T T T T T T T T T T T T ",
"1.1.1.$.1.1.1.1.1.1.1.1.1.1.1.1.<.1.1.1.=.1.1.1.1.1.1.1.1.1.1.1.1.1.1.1.1.1.1.1.1.1.1.1.=.1.1.1.1.1.1.1.1.1.1.1.>.1.1.1.1.1.1.1.",
"l l h l l h l * l # * f l l l l l l l l l l l l l % l # * l l l l * l # * l l l l l l * l # * f l l l h l l l l l h * l # & l l ",
"9 9 T o.' o.o.l $.o l 1.D 9 9 9 9 o.o.9 T 9 T 3 9 l 1.o l 1.o.7 | l 1.# l >.D 9 9 7 N l 1.# l 1.4 ' 9 9 o.9 o.9 o.o.l 1.# l 1.T ",
"9 3 T o.o.o.D l 1.@ h 1.T 9 9 9 l | o.9 T 9 U 9 9 l 1.# l 1.| 9 o.h 1.# l 1.o.D 9 D ..l >.# l >.9 o.9 9 o.3 | 3 o.o.l 1.@ l 1.T ",
"9 e V ' o.o.h l 1.  l 1.o.l 7 9 l | o.9 T e T 9 9 f 1.o l >.T 9 o.l 1.# l 1.o.' Z o.} l 1.  h 1.e ..3 9 o.9 o.9 o.o.l 1.# l 1.T ",
"l 9 l U o.o.l h 1.# l >.o.l 9 3 D o.T 9 T 9 T 9 9 l 1.# h 1.T 9 o.l 1.# l 1.| o.o.| o.l 1.  l 1.9 o.9 9 ' 9 o.9 o.o.l 1.# l 1.T ",
"T 9 e D ' D 9 h 1.O l 1.o.D 9 l T o.T 9 T 9 T 9 9 l 1.# l $.T 9 o.f 1.# l 1.o.o.o.o.o.l 1.# l 1.9 o.9 9 o.9 o.e T o.l 1.# l 1.l ",
"T 9 l 9 D l 9 l 1.  h 1.o.T 7 N ..o.Z 9 I 9 J 9 9 l 1.# l 1.D 9 o.l 1.# l 1.o...o.o.o.l 1.# l 1.9 o.9 9 o.9 o.e T o.l 1.# h 1.l ",
"o.l 7 7 l 9 9 l 1.# l 1.o.o.D T o.o.D 9 I 9 T 9 9 l 1.O l 1.D 9 o.l 1.# h 1.o.o.o.o.o.l 1.# l 1.9 o.9 9 o.9 o.9 D o.l =.o l 1.l ",
"o.l 7 9 9 9 l l 1.# l 1.' o.T o.o.o.l 3 T 9 T 9 9 h 1.# l 1.9 t o.l 1.# l 1.o.o.o.o.o.l 1.# l 1.9 o.9 9 o.9 ..3 N o.l 1.  l 1.4 ",
"T ' 9 9 7 l o.l 1.# l >.o.o.T o.o.o.h 9 T 9 T 9 9 l =.# l 1.u V o.l 1.O l 1.J o.o.o...l 1.# l 1.9 o.9 9 o.9 o.l 9 o.l 1.# l 1.9 ",
"I o.f 9 3 l o.l 1.# l 1.o.o.o.o.' T 9 9 T 9 T 9 9 l 1.o l 1.9 D o.l 1.O l 1.T o.o.' I l 1.# l 1.9 o.9 9 o.9 o.l 9 | l 1.# l 1.9 ",
"D o.o.9 h o.o.l 1.# l 1.o.) o.o.o.T 9 9 T 9 T 9 9 l 1.# l 1.7 o.o.l $.# l 1.V o.o.| K h 1.# l 1.9 o.9 9 o.9 o.l 9 o.l 1.# l 1.9 ",
"l o.o.o.l o.D l 1.# l 1.T o.| o.o.T 9 9 T 9 T e 9 l 1.# l 1.V o.o.l 1.# l 1.9 T o.T D l 1.# l 1.9 o.9 9 o.9 o.l 9 o.l 1.# l 1.l ",
"9 T o.o.D o.l l 1.# l 1.T ' o.o.o.D 9 9 T 9 T 9 9 f 1.# l 1.D o.T h 1.# l 1.9 D T D 9 l 1.# l 1.9 o.9 9 o.9 ) D e | f 1.# l 1.l ",
"u T o.o.o.o.l l 1.# l 1.D o.o.o...D 9 9 J 9 T 9 9 l 1.@ l 1.o.o.T l 1.  l 1.9 e D 9 9 l 1.# l 1.9 o.9 9 o.3 o.A 9 T l 1.o l >.l ",
"3 D K | ..o.9 h 1.o l 1.D o.o.o.' l e 9 T 9 J 9 9 l 1.# l 1.o.o.D l 1.# l 1.9 9 9 9 9 l $.# l 1.9 o.9 9 o.9 ' U 3 T l 1.# l 1.T ",
"9 l T o.o.A 9 l 1.# l 1.l T o./ ' l 7 h T 9 T 9 9 l 1.# l 1.o.T D l 1.# h 1.9 9 9 9 7 l 1.# l 1.9 o.9 9 / 9 o.T 9 T l =.# l 1.T ",
"9 9 D o.o.l 9 l 1.# l 1.l T ' o.T 9 9 h T 9 T 9 9 l 1.# h 1./ T 9 h >.# l 1.9 9 4 4 9 l 1.# l <.9 / 9 9 ..9 o.I 9 D l 1.# l 1.T ",
"e 9 l | o.l 9 l 1.# h 1.9 D o.o.T 9 9 l U 9 J 4 9 l 1.# l 1.o.A 9 l 1.O l 1.V 9 9 9 D l 1.# l 1.9 o.4 9 ..9 o.' 9 D l 1.# l 1.T ",
"l u l D l 9 9 l =.# l >.9 N o.o.D 9 9 D T 9 T 9 9 l 1.O l 1.T e 9 l *.# l 1.T D 3 D T l 1.# l 1.9 o.9 9 | 9 T o.9 u l 1.# l 1.I ",
"l 9 9 l 7 9 l f 1.# l 1.9 l T T D 9 9 D J 9 T 9 9 h 1.# l 1.A 4 9 l 1.o l 1.o.T D T ..l 1.# l 1.9 o.9 9 o.9 T o.l u l 1.# l 1.T ",
"l 9 9 7 9 9 l l 1.  l 1.9 l D D l 9 9 D Z 9 T u e l 1.O l 1.9 3 9 l 1.# f 1.o.o.T o.o.l 1.# l 1.9 o.3 u / 7 D o.l 9 h 1.# l 1.D ",
"T 3 9 9 u 9 T h 1.# l 1.7 9 l l 9 9 9 T h 9 T 9 9 l $.# h 1.u 9 9 l 1.# l 1.o.o...o.o.l 1.# l 1.9 o.9 4 o.9 D o.D u l 1.# l 1.l ",
"T 9 9 9 9 9 T h 1.# l 1.9 9 3 9 9 9 3 T l 9 T 9 9 l 1.# l 1.9 e l l 1.O h 1.` o.o.o.o.l 1.# l 1.9 o.9 9 o.9 f | V 9 l 1.# l 1.l ",
"T l 9 w 9 l D l 1.# h 1.9 9 9 9 9 9 h o.9 9 T 9 9 l 1.# l 1.9 u l l 1.# l 1.| ..| o.o.l 1.# h 1.9 o.9 9 o.9 l | I h f 1.O l 1.9 ",
"D l 9 9 9 l l h ;.# l 1.9 9 9 9 9 9 D o.9 9 T 9 9 l 1.# l 1.9 7 D l 1.# l 1.T o./ / o.l 1.# l 1.9 o.9 9 o.9 l o.T l l 1.# l 1.9 ",
"l T 9 9 9 T l l 1.# l 1.9 9 9 9 9 9 N o.9 3 T 9 9 l 1.# l 1.9 9 T l 1.# h 1.T / o.o.o.l 1.# l 1.u o.9 u o.9 9 o.o.N 9 1.# l 1.3 ",
"h T l 9 9 T 9 l 1.# l 1.9 9 9 3 9 9 T o.9 9 T 9 9 l 1.# h 1.9 h T h 1.# l 1.D o.o.o.P l 1.# l 1.9 o.9 4 o.9 9 o...D l 1.# l 1.9 ",
"9 D f 9 T D 9 l $.o l 1.l 9 9 3 e 4 T o.9 9 T 9 9 l 1.# l 1.3 D o.l 1.# l 1.D P o.o.U l >.# l 1.9 o.9 9 o.9 9 I / T l 1.# f 1.w ",
"9 l T l T l 4 l 1.# h 1.D 9 9 9 7 l o.T 9 l T 9 9 l >.# l 1.l I o.l >.# h 1.9 T o.o.D l 1.O l 1.9 o.4 9 o.u 9 T o.T l 1.# l 1.9 ",
"u l T l T l 9 l 1.  l 1.T l e 9 9 D o.T 9 l T 9 9 l 1.  l 1.V o.o.h 1.# l 1.9 V o.U 9 l 1.# l 1.9 o.e u / l 4 D o.o.f =.# l >.9 ",
"9 9 D T D 9 9 l 1.O l 1.o.D 9 9 l D o.D 9 D T 9 9 l 1.# l 1.T | o.l 1.# l 1.9 9 T V 9 l 1.# l 1.9 o.9 9 | f 9 D ' o.h =.o l 1.l ",
"9 9 f D l 9 9 l 1.# f 1.o.T l 9 l | o.l e A T 9 9 l 1.# l 1.o.o.o.l 1.# l 1.9 e V 9 9 l $.# h 1.9 o.9 9 o.l 9 l o.o.l 1.# l 1.l ",
"4 9 9 l 9 e 9 l 1.# l 1.' o.A 3 N | o.l 7 D T 9 9 l 1.# l 1./ o.T l 1.# l 1.4 9 9 9 9 l 1.# l 1.9 o.9 9 o.l 4 l o.o.l 1.# l 1.A ",
"9 9 9 9 9 9 e l =.# l 1.o.o.' D o.o.' 9 3 T T w 9 l 1.# l 1.o.| T l 1.# l $.9 9 9 9 9 l 1.# l 1.9 o.9 9 o.D 9 l ' o.l 1.# l 1.T ",
"3 9 9 9 9 9 h l 1.# h 1.o.| o.o.' o.T 9 3 T T 9 9 l 1.# l 1.o.o.D l 1.# f 1.9 9 9 9 9 l 1.# l 1.9 o.9 9 o.D e 7 T o.l 1.# l 1.T ",
"l 9 9 3 3 9 l l *.# l 1.T ..o.o.o.o.T 9 9 o.T 9 9 l 1.# l 1.o.T D l *.# l 1.D 9 9 9 9 l 1.o f 1.3 o.9 9 o.T 9 9 T o.k 1.o h 1.T ",
"l 3 9 9 9 9 D l >.# l 1.J o.o.o.o.o.D 9 9 / T 9 9 l 1.O l 1.o.T 9 l 1.# l 1.D 7 9 9 e l $.# l 1.9 | 9 9 T T 9 9 D o.l 1.# l 1.h ",
"T l 9 9 4 h D h 1.# l 1.D o.' o.o.o.l 9 7 o.D 9 9 f 1.# l 1.' D 9 l 1.# l 1.T D 9 e D l 1.# f 1.9 o.9 9 T o.w 9 D o.h 1.# h 1.h ",
"T l 9 u 9 l T l 1.# l 1.l o.o.o.| o.9 9 7 o.Z 9 3 h 1.# l 1.T D e l 1.# l 1.o.D 9 D D l 1.# l 1.9 o.9 9 D o.l 9 l T l 1.  l 1.3 ",
"T D l 9 l D T l 1.# l 1.9 T o.o.o.T 9 9 l o.9 9 e l 1.# l 1.T 7 9 l 1.# l 1.o.T D N T l 1.o l 1.9 o.9 7 D o.l 9 l T l ;.@ l 1.9 ",
"T T l l l T D l 1.# l *.9 N o.o.o.D 9 9 D ' 9 9 9 l $.# h 1.D 9 9 l 1.# l 1.o.) D U ' l 1.# l 1.9 o.9 9 f o.l 9 h D l 1.  l 1.9 ",
"D T D l Z T l l 1.# l 1.9 l T o.T l 7 9 T | 9 9 9 h >.# l 1.e 9 9 l 1.# l 1.o.o.T o.' l 1.# l 1.9 o.9 e l o.D 9 9 D l *.O l 1.9 ",
"l T T A T T l l 1.# l 1.4 u l T A 9 9 9 T ' 3 e 9 l 1.# l 1.9 9 f f =.# l 1.o.o.o.o...l 1.# l 1.9 o.9 9 l o.D l 9 l l >.O l 1.9 ",
"f T T D T T 9 l 1.@ l 1.u 9 9 h l 9 9 9 o.T 7 9 9 l 1.o l 1.e 3 l l 1.  l 1./ o.o.| o.h 1.# l 1.9 o.3 9 l o.T l u h l >.# h $.9 ",
"7 T o.o.o.T 9 l 1.# l 1.f 9 3 9 9 9 9 l o.I e 9 u l 1.# l 1.9 7 N l 1.# l 1.o.o...' P l 1.# l 1.9 o.9 9 9 o.T l 9 l l 1.# l 1.9 ",
"9 D o.o.o.T 9 l 1.O l 1.l 9 9 9 3 9 9 D o.D 9 9 9 l 1.# l 1.4 l T l 1.  l 1.T o.o.o.T l 1.  h 1.9 o.u 9 9 T o.D 7 7 l 1.# f 1.9 ",
"9 l T o.o.T 9 l 1.# h 1.D 9 9 4 e 9 9 T o.D 9 9 3 l 1.# l 1.e Z o.l 1.# l 1.T o.o.o.D l 1.o l 1.e o.9 9 9 T o.N h 9 l 1.  l 1.9 ",
"3 f T o.o.N 9 l 1.# l =.T h e 9 9 9 9 T o.7 9 9 9 l 1.# l 1.l T o.l 1.# l 1.D o.o.' A l 1.# l 1.9 / 9 4 9 D o.T l 7 l 1.# l 1.h ",
"9 9 D o.J D u l $.# l $.o.l 4 9 9 4 l o.T 9 9 7 9 l 1.# l 1.T o.o.l 1.# f 1.D o...T l l 1.# l 1.4 o.9 9 9 D o.T D 9 l 1.# l >.l ",
"9 7 l T T f 9 l 1.# l 1.o.D 9 7 9 9 D o.I e 9 D 9 l 1.  l 1.o...` l 1.O l 1.l T o.T l h 1.# f $.9 o.l e 9 l T o.N l l 1.@ l 1.D ",
"9 9 l T D h 9 h 1.# l 1.T T h 9 9 9 T o.V 3 9 D 9 l 1.# l $.| o.o.l 1.# l 1.l T o.D 9 l 1.# l 1.9 o.l 4 9 l D o.T l l 1.# l 1.D ",
"9 9 9 A D 7 9 l 1.# l 1.T ' l u 9 l T o.u 9 9 T 9 l 1.  l 1.o.o...l 1.# l >.3 D T l 9 l 1.# l 1.9 ..l 3 9 9 D o.T l l 1.# l 1.T ",
"9 9 4 l h 9 9 h 1.# l =.D | T l 7 l o.o.9 9 9 T 9 f 1.# l 1.o.o.o.l 1.# f 1.9 l D 4 9 l 1.O l 1.4 o.l 9 9 9 l T o.l l 1.# l 1.T ",
"l 9 9 9 9 9 l h 1.# h 1.9 T o.T l o./ T 9 9 3 U 4 l 1.o l 1.o.| ' l 1.# l 1.9 9 l 9 9 l 1.# h 1.9 T D 9 9 9 l A o.T l 1.o l 1.o.",
"l 9 9 9 9 9 l l 1.# l =.4 D o.o.o.o.o.D 9 9 3 o.9 l 1.# h 1.o.o.T h 1.# l 1.9 9 9 9 9 h 1.# l 1.7 T T 9 9 9 3 D o.T l 1.# l 1./ ",
"D 9 9 9 9 9 T l 1.# l 1.9 9 o.o.o.o.T 9 9 9 D o.9 l 1.# l 1.o.o.T l 1.  h 1.4 9 9 9 9 h 1.# l 1.9 D T l 9 9 u h T T l 1.# l 1...",
"D l 9 9 9 h T f 1.# l 1.3 9 D T o.T A 9 9 9 T o.e l 1.# l 1./ T D l =.O l 1.9 9 9 9 e l 1.# l 1.9 D o.l 9 9 9 9 N D l $.o l 1.o.",
"I l 3 9 9 l I l 1.# l 1.9 9 9 V T V 9 9 9 9 T o.7 l 1.# l 1.o.T D f 1.# l 1.9 9 9 9 u l 1.# l 1.3 9 o.l 9 9 9 9 9 l l $.# l >.o.",
"T D 9 9 9 l T l 1.# l 1.9 9 9 9 V 9 9 9 9 T ' ' D l 1.# l >.T A 9 h 1.# l 1.9 9 9 7 9 l 1.# l 1.D 9 o.D 9 9 w 9 9 9 h 1.# l 1.o.",
"D A D V D D D l 1.# l 1.D 9 9 9 9 9 9 9 D D D D D l $.# l 1.D e 9 l 1.# l 1.D 9 9 3 V l 1.# l =.D 9 D D 9 9 9 9 e 9 l 1.# l 1.D "
};
